<svg xmlns="http://www.w3.org/2000/svg" viewBox="0 0 500 500"><ellipse cx="250" cy="368.25" rx="240.79" ry="113.49" style="fill:#fafafa"/><path d="M476.3 341.55c-2 3.54-6.48 8.44-9.6 13.56-4.5 7.38-7.51 17.72-6.4 35.31l-2.36-1.36-5.79-3.35c-1.63-9.27-1.55-20.26.91-34.39 2.28-13 10.35-25.53 18-26.31 7.21-.73 10.28 7.7 5.24 16.54Z" style="fill:#e0e0e0"/><path d="M455.35 385.34a.47.47 0 0 0 .27-.49c-3-24.14 6.93-46.39 17-54.45a.46.46 0 1 0-.58-.72c-10.27 8.19-20.42 30.82-17.37 55.29a.46.46 0 0 0 .51.4Z" style="fill:#fff"/><path d="M486 357.69c-1.38 4.54-10.16 9.32-15.78 16.89-5.06 6.85-7.28 13.79-7.09 17.47l-2.83-1.63-2.36-1.36c-1.29-17.12 5-27.1 10.47-33.81a23.66 23.66 0 0 1 7.81-5.29c7.92-2.52 11.45 2.27 9.78 7.73Z" style="fill:#f0f0f0"/><path d="M460.61 388.67a.47.47 0 0 0 .29-.41c1.08-19.58 12.75-29.81 18.76-32.48a.47.47 0 0 0 .24-.61.46.46 0 0 0-.61-.23c-6.66 2.95-18.21 13.28-19.31 33.27a.47.47 0 0 0 .44.49.58.58 0 0 0 .19-.03Z" style="fill:#fff"/><path style="fill:#e6e6e6" d="m333.69 361 42-24.25-37.8-21.83-42 24.25 37.8 21.83z"/><ellipse cx="411.49" cy="413.21" rx="67.51" ry="38.98" style="fill:#e6e6e6"/><ellipse cx="232.56" cy="408.36" rx="57.99" ry="33.48" style="fill:#e6e6e6"/><path d="M358.75 331.58a.58.58 0 0 1-.58-.58v-65.12a.58.58 0 0 1 1.16 0V331a.58.58 0 0 1-.58.58ZM363.45 334.29a.58.58 0 0 1-.58-.58V268.5a.58.58 0 0 1 1.16 0v65.21a.58.58 0 0 1-.58.58Z" style="fill:#e0e0e0"/><path d="M363.45 331.28a.23.23 0 0 1-.14 0l-4.71-2.72a.28.28 0 0 1-.1-.39.29.29 0 0 1 .39-.11l4.71 2.72a.29.29 0 0 1 .1.4.29.29 0 0 1-.25.1ZM363.45 328.56a.23.23 0 0 1-.14 0l-4.71-2.71a.29.29 0 0 1-.1-.4.27.27 0 0 1 .39-.1l4.71 2.65a.29.29 0 0 1 .1.4.29.29 0 0 1-.25.16ZM363.45 325.84a.23.23 0 0 1-.14 0l-4.71-2.71a.29.29 0 0 1-.1-.4.27.27 0 0 1 .39-.1l4.71 2.71a.29.29 0 0 1 .1.4.29.29 0 0 1-.25.1ZM363.45 323.13a.33.33 0 0 1-.14 0l-4.71-2.72a.29.29 0 0 1-.1-.4.28.28 0 0 1 .39-.1l4.71 2.72a.28.28 0 0 1 .1.39.29.29 0 0 1-.25.11ZM363.45 320.41a.33.33 0 0 1-.14 0l-4.71-2.72a.28.28 0 0 1-.1-.39.29.29 0 0 1 .39-.11l4.71 2.72a.28.28 0 0 1 .1.39.29.29 0 0 1-.25.11ZM363.45 317.69a.23.23 0 0 1-.14 0l-4.71-2.72a.28.28 0 0 1-.1-.39.29.29 0 0 1 .39-.11l4.71 2.72a.28.28 0 0 1 .1.39.27.27 0 0 1-.25.11ZM363.45 315a.23.23 0 0 1-.14 0l-4.71-2.72a.28.28 0 0 1-.1-.39.29.29 0 0 1 .39-.11l4.71 2.72a.28.28 0 0 1 .1.39.27.27 0 0 1-.25.11ZM363.45 312.25a.23.23 0 0 1-.14 0l-4.71-2.72a.28.28 0 0 1-.1-.39.29.29 0 0 1 .39-.11l4.71 2.72a.29.29 0 0 1 .1.4.29.29 0 0 1-.25.1ZM363.45 309.53a.23.23 0 0 1-.14 0l-4.71-2.71a.29.29 0 0 1-.1-.4.29.29 0 0 1 .39-.11l4.71 2.69a.29.29 0 0 1 .1.4.29.29 0 0 1-.25.13ZM363.45 306.81a.23.23 0 0 1-.14 0l-4.71-2.71a.29.29 0 0 1-.1-.4.28.28 0 0 1 .39-.1l4.71 2.71a.29.29 0 0 1 .1.4.29.29 0 0 1-.25.1ZM363.45 304.09a.32.32 0 0 1-.14 0l-4.71-2.72a.29.29 0 0 1-.1-.4.28.28 0 0 1 .39-.1l4.71 2.71a.29.29 0 0 1 .1.4.29.29 0 0 1-.25.11ZM363.45 301.38a.33.33 0 0 1-.14 0l-4.71-2.72a.29.29 0 0 1-.1-.4.28.28 0 0 1 .39-.1l4.71 2.72a.28.28 0 0 1 .1.39.29.29 0 0 1-.25.11ZM363.45 298.66a.23.23 0 0 1-.14 0l-4.71-2.72a.28.28 0 0 1-.1-.39.29.29 0 0 1 .39-.11l4.71 2.72a.28.28 0 0 1 .1.39.27.27 0 0 1-.25.11ZM363.45 295.94a.23.23 0 0 1-.14 0l-4.71-2.72a.28.28 0 0 1-.1-.39.29.29 0 0 1 .39-.11l4.71 2.72a.29.29 0 0 1 .1.4.29.29 0 0 1-.25.1ZM363.45 293.22a.23.23 0 0 1-.14 0l-4.71-2.72a.28.28 0 0 1-.1-.39.29.29 0 0 1 .39-.11l4.71 2.72a.29.29 0 0 1 .1.4.29.29 0 0 1-.25.1ZM363.45 290.5a.23.23 0 0 1-.14 0l-4.71-2.71a.29.29 0 0 1-.1-.4.29.29 0 0 1 .39-.11l4.71 2.72a.29.29 0 0 1 .1.4.29.29 0 0 1-.25.1ZM363.45 287.78a.23.23 0 0 1-.14 0L358.6 285a.29.29 0 0 1-.1-.4.28.28 0 0 1 .39-.1l4.71 2.71a.29.29 0 0 1 .1.4.29.29 0 0 1-.25.17ZM363.45 285.06a.32.32 0 0 1-.14 0l-4.71-2.72a.29.29 0 0 1-.1-.4.28.28 0 0 1 .39-.1l4.71 2.71a.29.29 0 0 1 .1.4.29.29 0 0 1-.25.11ZM363.45 282.35a.33.33 0 0 1-.14 0l-4.71-2.72a.29.29 0 0 1 .29-.5l4.71 2.72a.28.28 0 0 1 .1.39.29.29 0 0 1-.25.11ZM363.45 279.63a.23.23 0 0 1-.14 0l-4.71-2.72a.28.28 0 0 1-.1-.39.29.29 0 0 1 .39-.11l4.71 2.72a.28.28 0 0 1 .1.39.27.27 0 0 1-.25.11ZM363.45 276.91a.23.23 0 0 1-.14 0l-4.71-2.72a.28.28 0 0 1-.1-.39.29.29 0 0 1 .39-.11l4.71 2.72a.28.28 0 0 1 .1.39.27.27 0 0 1-.25.11ZM363.45 274.19a.23.23 0 0 1-.14 0l-4.71-2.72a.28.28 0 0 1-.1-.39.29.29 0 0 1 .39-.11l4.71 2.72a.29.29 0 0 1 .1.4.29.29 0 0 1-.25.1ZM363.45 271.47a.23.23 0 0 1-.14 0l-4.71-2.71a.29.29 0 0 1-.1-.4.29.29 0 0 1 .39-.11l4.71 2.72a.29.29 0 0 1 .1.4.29.29 0 0 1-.25.1ZM302.27 337a.58.58 0 0 1-.29-1.08l32.94-19a.6.6 0 0 1 .58 0l32.95 19a.58.58 0 0 1-.58 1l-32.66-18.85-32.65 18.85a.51.51 0 0 1-.29.08Z" style="fill:#e0e0e0"/><path d="M368.16 271.8a.6.6 0 0 1-.29-.08l-32.66-18.85-32.65 18.85a.58.58 0 0 1-.58-1l32.94-19a.55.55 0 0 1 .58 0l32.95 19a.57.57 0 0 1 .21.79.59.59 0 0 1-.5.29Z" style="fill:#e0e0e0"/><path style="fill:#ebebeb" d="m330.51 337.15 18.81-10.88v-65.91l-18.81 10.86v65.93z"/><path style="fill:#f5f5f5" d="m330.51 337.15-14.12-8.22v-65.86l14.12 8.15v65.93z"/><path style="fill:#ba68c8" d="m349.32 260.36-14.11-8.16-18.82 10.87 14.12 8.15 18.81-10.86z"/><g style="opacity:.30000000000000004"><path style="fill:#fff" d="m349.32 260.36-14.11-8.16-18.82 10.87 14.12 8.15 18.81-10.86z"/></g><path d="M335.22 356a.51.51 0 0 1-.29-.08.57.57 0 0 1-.29-.5v-65.18a.57.57 0 0 1 .29-.5l32.94-19a.55.55 0 0 1 .58 0 .57.57 0 0 1 .29.5v65.21a.57.57 0 0 1-.29.5L335.5 356a.48.48 0 0 1-.28 0Zm.57-65.46v63.88l31.79-18.35v-63.85Z" style="fill:#e0e0e0"/><path d="M335.22 356a.51.51 0 0 1-.29-.08l-32.95-19a.57.57 0 0 1-.29-.5v-65.2a.57.57 0 0 1 .29-.5.55.55 0 0 1 .58 0l32.94 19a.57.57 0 0 1 .29.5v65.21a.57.57 0 0 1-.29.5.48.48 0 0 1-.28.07Zm-32.37-19.9 31.79 18.35v-63.88l-31.79-18.35Z" style="fill:#e0e0e0"/><path d="M335.22 356a.54.54 0 0 1-.22 0 .58.58 0 0 1-.32-.75L367.62 271a.58.58 0 1 1 1.08.42l-32.95 84.23a.56.56 0 0 1-.53.35ZM302.27 337a.51.51 0 0 1-.33-.11.56.56 0 0 1-.14-.8l32.94-46.2a.58.58 0 0 1 .95.68l-32.95 46.19a.57.57 0 0 1-.47.24ZM358.75 266.36a.58.58 0 0 1-.58-.58v-65.11a.58.58 0 1 1 1.16 0v65.11a.58.58 0 0 1-.58.58ZM363.45 269.08a.58.58 0 0 1-.58-.58v-65.21a.58.58 0 0 1 1.16 0v65.21a.58.58 0 0 1-.58.58Z" style="fill:#e0e0e0"/><path d="M363.45 266.07a.23.23 0 0 1-.14 0l-4.71-2.72a.28.28 0 0 1-.1-.39.29.29 0 0 1 .39-.11l4.71 2.72a.28.28 0 0 1 .1.39.27.27 0 0 1-.25.11ZM363.45 263.35a.23.23 0 0 1-.14 0l-4.71-2.72a.28.28 0 0 1-.1-.39.29.29 0 0 1 .39-.11l4.71 2.72a.28.28 0 0 1 .1.39.27.27 0 0 1-.25.11ZM363.45 260.63a.23.23 0 0 1-.14 0l-4.71-2.72a.28.28 0 0 1-.1-.39.29.29 0 0 1 .39-.11l4.71 2.72a.29.29 0 0 1 .1.4.29.29 0 0 1-.25.1ZM363.45 257.91a.23.23 0 0 1-.14 0l-4.71-2.71a.29.29 0 0 1-.1-.4.29.29 0 0 1 .39-.11l4.71 2.72a.29.29 0 0 1 .1.4.29.29 0 0 1-.25.1ZM363.45 255.19a.32.32 0 0 1-.14 0l-4.71-2.72a.29.29 0 0 1-.1-.4.27.27 0 0 1 .39-.1l4.71 2.71a.29.29 0 0 1 .1.4.29.29 0 0 1-.25.11ZM363.45 252.48a.33.33 0 0 1-.14 0l-4.71-2.72a.29.29 0 0 1-.1-.4.28.28 0 0 1 .39-.1l4.71 2.71a.3.3 0 0 1-.15.55ZM363.45 249.76a.33.33 0 0 1-.14 0L358.6 247a.29.29 0 0 1-.1-.4.28.28 0 0 1 .39-.1l4.71 2.72a.28.28 0 0 1 .1.39.29.29 0 0 1-.25.15ZM363.45 247a.23.23 0 0 1-.14 0l-4.71-2.72a.28.28 0 0 1-.1-.39.29.29 0 0 1 .39-.11l4.71 2.72a.28.28 0 0 1 .1.39.27.27 0 0 1-.25.11ZM363.45 244.32a.23.23 0 0 1-.14 0l-4.71-2.72a.28.28 0 0 1-.1-.39.29.29 0 0 1 .39-.11l4.71 2.72a.28.28 0 0 1 .1.39.27.27 0 0 1-.25.11ZM363.45 241.6a.23.23 0 0 1-.14 0l-4.71-2.72a.28.28 0 0 1-.1-.39.29.29 0 0 1 .39-.11l4.71 2.72a.29.29 0 0 1 .1.4.29.29 0 0 1-.25.1ZM363.45 238.88a.23.23 0 0 1-.14 0l-4.71-2.71a.29.29 0 0 1-.1-.4.29.29 0 0 1 .39-.11l4.71 2.72a.29.29 0 0 1 .1.4.29.29 0 0 1-.25.1ZM363.45 236.16a.23.23 0 0 1-.14 0l-4.71-2.71a.29.29 0 0 1-.1-.4.28.28 0 0 1 .39-.1l4.71 2.71a.29.29 0 0 1 .1.4.29.29 0 0 1-.25.1ZM363.45 233.45a.33.33 0 0 1-.14 0l-4.71-2.72a.29.29 0 0 1-.1-.4.28.28 0 0 1 .39-.1l4.71 2.71a.3.3 0 0 1-.15.55ZM363.45 230.73a.33.33 0 0 1-.14 0L358.6 228a.29.29 0 0 1-.1-.4.28.28 0 0 1 .39-.1l4.71 2.72a.28.28 0 0 1 .1.39.29.29 0 0 1-.25.12ZM363.45 228a.33.33 0 0 1-.14 0l-4.71-2.72a.28.28 0 0 1-.1-.39.29.29 0 0 1 .39-.11l4.71 2.72a.28.28 0 0 1 .1.39.29.29 0 0 1-.25.11ZM363.45 225.29a.23.23 0 0 1-.14 0l-4.71-2.72a.28.28 0 0 1-.1-.39.29.29 0 0 1 .39-.11l4.71 2.72a.28.28 0 0 1 .1.39.27.27 0 0 1-.25.11ZM363.45 222.57a.23.23 0 0 1-.14 0l-4.71-2.72a.28.28 0 0 1-.1-.39.29.29 0 0 1 .39-.11l4.71 2.65a.29.29 0 0 1 .1.4.29.29 0 0 1-.25.17ZM363.45 219.85a.23.23 0 0 1-.14 0l-4.71-2.71a.29.29 0 0 1-.1-.4.29.29 0 0 1 .39-.11l4.71 2.72a.29.29 0 0 1 .1.4.29.29 0 0 1-.25.1ZM363.45 217.13a.23.23 0 0 1-.14 0l-4.71-2.71a.29.29 0 0 1-.1-.4.27.27 0 0 1 .39-.1l4.71 2.71a.29.29 0 0 1 .1.4.29.29 0 0 1-.25.1ZM363.45 214.41a.32.32 0 0 1-.14 0l-4.71-2.72a.29.29 0 0 1-.1-.4.28.28 0 0 1 .39-.1l4.71 2.71a.29.29 0 0 1 .1.4.29.29 0 0 1-.25.11ZM363.45 211.7a.33.33 0 0 1-.14 0l-4.71-2.72a.29.29 0 0 1 .29-.5l4.71 2.72a.28.28 0 0 1 .1.39.29.29 0 0 1-.25.11ZM363.45 209a.23.23 0 0 1-.14 0l-4.71-2.72a.28.28 0 0 1-.1-.39.29.29 0 0 1 .39-.11l4.71 2.72a.28.28 0 0 1 .1.39.27.27 0 0 1-.25.11ZM363.45 206.26a.23.23 0 0 1-.14 0l-4.71-2.72a.28.28 0 0 1-.1-.39.29.29 0 0 1 .39-.11l4.71 2.72a.28.28 0 0 1 .1.39.27.27 0 0 1-.25.11ZM368.16 271.8a.6.6 0 0 1-.29-.08l-32.66-18.85-32.65 18.85a.58.58 0 0 1-.58-1l32.94-19a.55.55 0 0 1 .58 0l32.95 19a.57.57 0 0 1 .21.79.59.59 0 0 1-.5.29Z" style="fill:#e0e0e0"/><path d="M302.27 206.59a.59.59 0 0 1-.5-.29.59.59 0 0 1 .21-.8l32.94-19a.6.6 0 0 1 .58 0l32.95 19a.59.59 0 0 1 .21.8.59.59 0 0 1-.79.21l-32.66-18.86-32.65 18.86a.6.6 0 0 1-.29.08Z" style="fill:#e0e0e0"/><path style="fill:#ebebeb" d="m330.51 271.94 18.81-10.88v-65.91l-18.81 10.86v65.93z"/><path style="fill:#f5f5f5" d="m330.51 271.94-14.12-8.22v-65.87l14.12 8.16v65.93z"/><path style="fill:#ba68c8" d="m349.32 195.15-14.11-8.16-18.82 10.86 14.12 8.16 18.81-10.86z"/><g style="opacity:.30000000000000004"><path style="fill:#fff" d="m349.32 195.15-14.11-8.16-18.82 10.86 14.12 8.16 18.81-10.86z"/></g><path d="M335.22 290.82a.6.6 0 0 1-.29-.08.57.57 0 0 1-.29-.5V225a.6.6 0 0 1 .29-.51l32.94-19a.58.58 0 0 1 .87.51v65.21a.57.57 0 0 1-.29.5l-32.95 19a.57.57 0 0 1-.28.11Zm.57-65.46v63.88l31.79-18.36V207Z" style="fill:#e0e0e0"/><path d="M335.22 290.82a.6.6 0 0 1-.29-.08l-32.95-19a.57.57 0 0 1-.29-.5V206a.58.58 0 0 1 .87-.51l32.94 19a.6.6 0 0 1 .29.51v65.21a.59.59 0 0 1-.57.58Zm-32.37-19.94 31.79 18.36v-63.88L302.85 207Z" style="fill:#e0e0e0"/><path d="M335.22 290.82a.54.54 0 0 1-.22 0 .58.58 0 0 1-.32-.75l32.94-84.23a.58.58 0 1 1 1.08.42l-32.95 84.23a.56.56 0 0 1-.53.33ZM302.27 271.8a.59.59 0 0 1-.47-.92l32.94-46.19a.58.58 0 0 1 .95.67l-32.95 46.19a.57.57 0 0 1-.47.25ZM358.75 201.15a.58.58 0 0 1-.58-.58v-65.11a.58.58 0 0 1 1.16 0v65.11a.58.58 0 0 1-.58.58ZM363.45 203.87a.58.58 0 0 1-.58-.58v-65.21a.58.58 0 0 1 1.16 0v65.21a.58.58 0 0 1-.58.58Z" style="fill:#e0e0e0"/><path d="M363.45 200.85a.32.32 0 0 1-.14 0l-4.71-2.72a.29.29 0 0 1-.1-.4.28.28 0 0 1 .39-.1l4.71 2.71a.29.29 0 0 1 .1.4.29.29 0 0 1-.25.11ZM363.45 198.14a.33.33 0 0 1-.14 0l-4.71-2.72a.29.29 0 0 1-.1-.4.28.28 0 0 1 .39-.1l4.71 2.72a.28.28 0 0 1 .1.39.29.29 0 0 1-.25.11ZM363.45 195.42a.23.23 0 0 1-.14 0l-4.71-2.72a.28.28 0 0 1-.1-.39.29.29 0 0 1 .39-.11l4.71 2.72a.28.28 0 0 1 .1.39.29.29 0 0 1-.25.11ZM363.45 192.7a.23.23 0 0 1-.14 0l-4.71-2.72a.28.28 0 0 1-.1-.39.29.29 0 0 1 .39-.11l4.71 2.72a.28.28 0 0 1 .1.39.27.27 0 0 1-.25.11ZM363.45 190a.23.23 0 0 1-.14 0l-4.71-2.72a.28.28 0 0 1-.1-.39.29.29 0 0 1 .39-.11l4.71 2.72a.29.29 0 0 1 .1.4.29.29 0 0 1-.25.1ZM363.45 187.26a.23.23 0 0 1-.14 0l-4.71-2.71a.29.29 0 0 1-.1-.4.29.29 0 0 1 .39-.11l4.71 2.72a.29.29 0 0 1 .1.4.29.29 0 0 1-.25.1ZM363.45 184.54a.23.23 0 0 1-.14 0l-4.71-2.71a.29.29 0 0 1-.1-.4.27.27 0 0 1 .39-.1l4.71 2.67a.29.29 0 0 1 .1.4.29.29 0 0 1-.25.14ZM363.45 181.82a.32.32 0 0 1-.14 0l-4.71-2.72a.29.29 0 0 1-.1-.4.28.28 0 0 1 .39-.1l4.71 2.71a.29.29 0 0 1 .1.4.29.29 0 0 1-.25.11ZM363.45 179.11a.33.33 0 0 1-.14 0l-4.71-2.72a.29.29 0 0 1-.1-.4.28.28 0 0 1 .39-.1l4.71 2.72a.28.28 0 0 1 .1.39.29.29 0 0 1-.25.11ZM363.45 176.39a.23.23 0 0 1-.14 0l-4.71-2.72a.28.28 0 0 1-.1-.39.29.29 0 0 1 .39-.11l4.71 2.72a.28.28 0 0 1 .1.39.27.27 0 0 1-.25.11ZM363.45 173.67a.23.23 0 0 1-.14 0l-4.71-2.72a.28.28 0 0 1-.1-.39.29.29 0 0 1 .39-.11l4.71 2.72a.28.28 0 0 1 .1.39.27.27 0 0 1-.25.11ZM363.45 171a.23.23 0 0 1-.14 0l-4.71-2.72a.28.28 0 0 1-.1-.39.29.29 0 0 1 .39-.11l4.71 2.72a.29.29 0 0 1 .1.4.29.29 0 0 1-.25.1ZM363.45 168.23a.23.23 0 0 1-.14 0l-4.71-2.71a.29.29 0 0 1-.1-.4.29.29 0 0 1 .39-.11l4.71 2.72a.29.29 0 0 1 .1.4.29.29 0 0 1-.25.1ZM363.45 165.51a.23.23 0 0 1-.14 0l-4.71-2.71a.29.29 0 0 1-.1-.4.28.28 0 0 1 .39-.1l4.71 2.7a.29.29 0 0 1 .1.4.29.29 0 0 1-.25.11ZM363.45 162.79a.32.32 0 0 1-.14 0L358.6 160a.29.29 0 0 1-.1-.4.27.27 0 0 1 .39-.1l4.71 2.71a.29.29 0 0 1 .1.4.29.29 0 0 1-.25.18ZM363.45 160.08a.33.33 0 0 1-.14 0l-4.71-2.72a.29.29 0 0 1 .29-.5l4.71 2.72a.28.28 0 0 1 .1.39.29.29 0 0 1-.25.11ZM363.45 157.36a.33.33 0 0 1-.14 0l-4.71-2.72a.28.28 0 0 1-.1-.39.29.29 0 0 1 .39-.11l4.71 2.72a.28.28 0 0 1 .1.39.29.29 0 0 1-.25.11ZM363.45 154.64a.23.23 0 0 1-.14 0l-4.71-2.72a.28.28 0 0 1-.1-.39.29.29 0 0 1 .39-.11l4.71 2.72a.28.28 0 0 1 .1.39.27.27 0 0 1-.25.11ZM363.45 151.92a.23.23 0 0 1-.14 0l-4.71-2.72a.28.28 0 0 1-.1-.39.29.29 0 0 1 .39-.11l4.71 2.72a.28.28 0 0 1 .1.39.27.27 0 0 1-.25.11ZM363.45 149.2a.23.23 0 0 1-.14 0l-4.71-2.72a.28.28 0 0 1-.1-.39.29.29 0 0 1 .39-.11l4.71 2.72a.29.29 0 0 1 .1.4.29.29 0 0 1-.25.1ZM363.45 146.48a.23.23 0 0 1-.14 0l-4.71-2.71a.29.29 0 0 1-.1-.4.27.27 0 0 1 .39-.1l4.71 2.71a.29.29 0 0 1 .1.4.29.29 0 0 1-.25.1ZM363.45 143.76a.23.23 0 0 1-.14 0L358.6 141a.29.29 0 0 1-.1-.4.28.28 0 0 1 .39-.1l4.71 2.71a.29.29 0 0 1 .1.4.29.29 0 0 1-.25.15ZM363.45 141.05a.33.33 0 0 1-.14 0l-4.71-2.72a.29.29 0 0 1-.1-.4.28.28 0 0 1 .39-.1l4.71 2.72a.28.28 0 0 1 .1.39.29.29 0 0 1-.25.11ZM302.27 206.59a.59.59 0 0 1-.5-.29.59.59 0 0 1 .21-.8l32.94-19a.6.6 0 0 1 .58 0l32.95 19a.59.59 0 0 1 .21.8.59.59 0 0 1-.79.21l-32.66-18.86-32.65 18.86a.6.6 0 0 1-.29.08Z" style="fill:#e0e0e0"/><path d="M302.27 141.37a.58.58 0 0 1-.29-1.08l32.94-19a.6.6 0 0 1 .58 0l32.95 19a.58.58 0 0 1-.58 1l-32.66-18.85-32.65 18.85a.51.51 0 0 1-.29.08Z" style="fill:#e0e0e0"/><path style="fill:#ebebeb" d="m330.51 206.72 18.81-10.88v-65.91l-18.81 10.86v65.93z"/><path style="fill:#f5f5f5" d="m330.51 206.72-14.12-8.21v-65.87l14.12 8.15v65.93z"/><path style="fill:#ba68c8" d="m349.32 129.93-14.11-8.16-18.82 10.87 14.12 8.15 18.81-10.86z"/><g style="opacity:.30000000000000004"><path style="fill:#fff" d="m349.32 129.93-14.11-8.16-18.82 10.87 14.12 8.15 18.81-10.86z"/></g><path d="M335.22 225.61a.6.6 0 0 1-.29-.08.59.59 0 0 1-.29-.5v-65.22a.59.59 0 0 1 .29-.5l32.94-19a.6.6 0 0 1 .58 0 .58.58 0 0 1 .29.5V206a.59.59 0 0 1-.29.5l-32.95 19a.57.57 0 0 1-.28.11Zm.57-65.46V224l31.79-18.35V141.8Z" style="fill:#e0e0e0"/><path d="M335.22 225.61a.6.6 0 0 1-.29-.08l-32.95-19a.59.59 0 0 1-.29-.5v-65.24a.58.58 0 0 1 .29-.5.6.6 0 0 1 .58 0l32.94 19a.59.59 0 0 1 .29.5V225a.59.59 0 0 1-.29.5.57.57 0 0 1-.28.11Zm-32.37-19.94L334.64 224v-63.85l-31.79-18.35Z" style="fill:#e0e0e0"/><path d="M335.22 225.61a.78.78 0 0 1-.22 0 .58.58 0 0 1-.32-.75l32.94-84.24a.58.58 0 1 1 1.08.42l-32.95 84.24a.56.56 0 0 1-.53.33ZM302.27 206.59a.59.59 0 0 1-.47-.92l32.94-46.19a.58.58 0 0 1 .81-.14.59.59 0 0 1 .14.81l-32.95 46.19a.57.57 0 0 1-.47.25ZM358.75 135.94a.58.58 0 0 1-.58-.58V70.24a.58.58 0 1 1 1.16 0v65.12a.58.58 0 0 1-.58.58ZM363.45 138.66a.58.58 0 0 1-.58-.58V72.86a.58.58 0 0 1 1.16 0v65.22a.58.58 0 0 1-.58.58Z" style="fill:#e0e0e0"/><path d="M363.45 135.64a.23.23 0 0 1-.14 0l-4.71-2.72a.28.28 0 0 1-.1-.39.29.29 0 0 1 .39-.11l4.71 2.72a.29.29 0 0 1 .1.4.29.29 0 0 1-.25.1ZM363.45 132.92a.23.23 0 0 1-.14 0l-4.71-2.71a.29.29 0 0 1-.1-.4.27.27 0 0 1 .39-.1l4.71 2.71a.29.29 0 0 1 .1.4.29.29 0 0 1-.25.1ZM363.45 130.2a.32.32 0 0 1-.14 0l-4.71-2.72a.29.29 0 0 1-.1-.4.28.28 0 0 1 .39-.1l4.71 2.71a.29.29 0 0 1 .1.4.29.29 0 0 1-.25.11ZM363.45 127.49a.33.33 0 0 1-.14 0l-4.71-2.72a.29.29 0 0 1-.1-.4.28.28 0 0 1 .39-.1l4.71 2.73a.28.28 0 0 1 .1.39.29.29 0 0 1-.25.1ZM363.45 124.77a.33.33 0 0 1-.14 0L358.6 122a.28.28 0 0 1-.1-.39.29.29 0 0 1 .39-.11l4.71 2.72a.28.28 0 0 1 .1.39.29.29 0 0 1-.25.16ZM363.45 122.05a.23.23 0 0 1-.14 0l-4.71-2.72a.28.28 0 0 1-.1-.39.29.29 0 0 1 .39-.11l4.71 2.72a.28.28 0 0 1 .1.39.27.27 0 0 1-.25.11ZM363.45 119.33a.23.23 0 0 1-.14 0l-4.71-2.72a.28.28 0 0 1-.1-.39.29.29 0 0 1 .39-.11l4.71 2.72a.28.28 0 0 1 .1.39.27.27 0 0 1-.25.11ZM363.45 116.61a.23.23 0 0 1-.14 0l-4.71-2.71a.29.29 0 0 1-.1-.4.29.29 0 0 1 .39-.11l4.71 2.72a.29.29 0 0 1 .1.4.29.29 0 0 1-.25.1ZM363.45 113.89a.23.23 0 0 1-.14 0l-4.71-2.71a.29.29 0 0 1-.1-.4.29.29 0 0 1 .39-.11l4.71 2.72a.29.29 0 0 1 .1.4.29.29 0 0 1-.25.1ZM363.45 111.17a.32.32 0 0 1-.14 0l-4.71-2.72a.29.29 0 0 1-.1-.4.28.28 0 0 1 .39-.1l4.71 2.71a.29.29 0 0 1 .1.4.29.29 0 0 1-.25.11ZM363.45 108.46a.33.33 0 0 1-.14 0l-4.71-2.72a.29.29 0 0 1-.1-.4.28.28 0 0 1 .39-.1l4.71 2.72a.28.28 0 0 1 .1.39.29.29 0 0 1-.25.11ZM363.45 105.74a.33.33 0 0 1-.14 0L358.6 103a.28.28 0 0 1-.1-.39.29.29 0 0 1 .39-.11l4.71 2.72a.28.28 0 0 1 .1.39.29.29 0 0 1-.25.13ZM363.45 103a.23.23 0 0 1-.14 0l-4.71-2.72a.28.28 0 0 1-.1-.39.29.29 0 0 1 .39-.11l4.71 2.72a.28.28 0 0 1 .1.39.27.27 0 0 1-.25.11ZM363.45 100.3a.23.23 0 0 1-.14 0l-4.71-2.72a.28.28 0 0 1-.1-.39.29.29 0 0 1 .39-.11l4.71 2.72a.29.29 0 0 1 .1.4.29.29 0 0 1-.25.1ZM363.45 97.58a.23.23 0 0 1-.14 0l-4.71-2.71a.29.29 0 0 1-.1-.4.29.29 0 0 1 .39-.11L363.6 97a.29.29 0 0 1 .1.4.29.29 0 0 1-.25.18ZM363.45 94.86a.23.23 0 0 1-.14 0l-4.71-2.71a.29.29 0 0 1-.1-.4.29.29 0 0 1 .39-.11l4.71 2.72a.29.29 0 0 1 .1.4.29.29 0 0 1-.25.1ZM363.45 92.14a.32.32 0 0 1-.14 0l-4.71-2.72a.29.29 0 0 1-.1-.4.27.27 0 0 1 .39-.1l4.71 2.71a.29.29 0 0 1 .1.4.29.29 0 0 1-.25.11ZM363.45 89.43a.33.33 0 0 1-.14 0l-4.71-2.72a.29.29 0 0 1 .29-.5l4.71 2.71a.3.3 0 0 1-.15.55ZM363.45 86.71a.33.33 0 0 1-.14 0L358.6 84a.29.29 0 0 1-.1-.4.28.28 0 0 1 .39-.1l4.71 2.72a.28.28 0 0 1 .1.39.29.29 0 0 1-.25.1ZM363.45 84a.23.23 0 0 1-.14 0l-4.71-2.72a.28.28 0 0 1-.1-.39.29.29 0 0 1 .39-.11l4.71 2.72a.28.28 0 0 1 .1.39.27.27 0 0 1-.25.11ZM363.45 81.27a.23.23 0 0 1-.14 0l-4.71-2.72a.28.28 0 0 1-.1-.39.29.29 0 0 1 .39-.11l4.71 2.72a.28.28 0 0 1 .1.39.27.27 0 0 1-.25.11ZM363.45 78.55a.23.23 0 0 1-.14 0l-4.71-2.72a.28.28 0 0 1-.1-.39.29.29 0 0 1 .39-.11L363.6 78a.29.29 0 0 1 .1.4.29.29 0 0 1-.25.15ZM363.45 75.83a.23.23 0 0 1-.14 0l-4.71-2.71a.29.29 0 0 1-.1-.4.27.27 0 0 1 .39-.1l4.71 2.71a.29.29 0 0 1 .1.4.29.29 0 0 1-.25.1ZM302.27 141.37a.58.58 0 0 1-.29-1.08l32.94-19a.6.6 0 0 1 .58 0l32.95 19a.58.58 0 0 1-.58 1l-32.66-18.85-32.65 18.85a.51.51 0 0 1-.29.08Z" style="fill:#e0e0e0"/><path d="M302.27 76.16a.58.58 0 0 1-.29-1.08l32.94-19a.55.55 0 0 1 .58 0l32.95 19a.58.58 0 0 1-.58 1l-32.66-18.85-32.65 18.85a.6.6 0 0 1-.29.08Z" style="fill:#e0e0e0"/><path style="fill:#ebebeb" d="m330.51 141.51 18.81-10.88V64.72l-18.81 10.86v65.93z"/><path style="fill:#f5f5f5" d="m330.51 141.51-14.12-8.22V67.43l14.12 8.15v65.93z"/><path style="fill:#e0e0e0" d="m349.32 64.72-14.11-8.16-18.82 10.87 14.12 8.15 18.81-10.86zM335.22 160.39a.56.56 0 0 1-.58-.58V94.6a.57.57 0 0 1 .29-.5l32.94-19a.55.55 0 0 1 .58 0 .57.57 0 0 1 .29.5v65.21a.57.57 0 0 1-.29.5l-32.95 19a.55.55 0 0 1-.28.08Zm.57-65.46v63.88l31.79-18.35V76.58Z"/><path d="M335.22 160.39a.59.59 0 0 1-.29-.07l-32.95-19a.57.57 0 0 1-.29-.5V75.58a.57.57 0 0 1 .29-.5.55.55 0 0 1 .58 0l32.94 19a.57.57 0 0 1 .29.5v65.21a.6.6 0 0 1-.29.51.55.55 0 0 1-.28.09Zm-32.37-19.93 31.79 18.35V94.93l-31.79-18.35Z" style="fill:#e0e0e0"/><path d="M335.22 160.39a.54.54 0 0 1-.22 0 .58.58 0 0 1-.32-.75l32.94-84.23a.58.58 0 1 1 1.08.42L335.75 160a.56.56 0 0 1-.53.39ZM302.27 141.37a.56.56 0 0 1-.33-.1.57.57 0 0 1-.14-.81l32.94-46.2a.58.58 0 0 1 .95.68l-32.95 46.19a.57.57 0 0 1-.47.24ZM325.8 143.51v-10.87l-4.72-2.71.02 10.86 4.7 2.72z" style="fill:#e0e0e0"/><path d="M325.8 143.51v-10.87l-4.72-2.71.02 10.86 4.7 2.72z" style="opacity:.15"/><path d="M316.39 149.23a.32.32 0 0 1-.14 0 .29.29 0 0 1-.15-.26v-10.89a.27.27 0 0 1 .14-.25l9.42-5.44a.3.3 0 0 1 .29 0 .29.29 0 0 1 .14.25v10.87a.29.29 0 0 1-.14.25l-9.42 5.44a.32.32 0 0 1-.14.03Zm.29-11v10.2l8.83-5.1v-10.2Z" style="fill:#e0e0e0"/><path d="M311.67 146.53a.3.3 0 0 1-.29-.24.29.29 0 0 1 .23-.34l14.14-2.72a.29.29 0 0 1 .34.23.31.31 0 0 1-.23.34l-14.14 2.72ZM302.27 152a.28.28 0 0 1-.28-.23.29.29 0 0 1 .23-.34l14.13-2.73a.29.29 0 1 1 .11.57L302.33 152ZM292.87 157.4a.3.3 0 0 1-.28-.24.29.29 0 0 1 .23-.34l14.18-2.73a.31.31 0 0 1 .34.23.29.29 0 0 1-.23.34l-14.14 2.73ZM283.48 162.83a.29.29 0 0 1-.05-.57l14.13-2.73a.29.29 0 1 1 .11.57l-14.14 2.73ZM274.08 168.26a.29.29 0 0 1-.05-.57l14.13-2.69a.29.29 0 1 1 .11.57l-14.13 2.73ZM264.69 173.7a.28.28 0 0 1-.28-.24.28.28 0 0 1 .23-.34l14.13-2.72a.29.29 0 0 1 .34.23.3.3 0 0 1-.23.34l-14.14 2.72Z" style="fill:#e0e0e0"/><path d="M325.8 143.8a.23.23 0 0 1-.14 0l-9.42-5.43a.29.29 0 0 1-.1-.4.27.27 0 0 1 .39-.1l9.42 5.43a.3.3 0 0 1 .1.4.29.29 0 0 1-.25.1Z" style="fill:#e0e0e0"/><path d="M316.39 149.23a.32.32 0 0 1-.14 0 .29.29 0 0 1-.11-.4l9.41-16.3a.29.29 0 0 1 .4-.11.3.3 0 0 1 .1.4l-9.41 16.3a.29.29 0 0 1-.25.11Z" style="fill:#e0e0e0"/><path d="M307 154.67a.28.28 0 0 1-.15 0 .29.29 0 0 1-.14-.25v-10.91a.29.29 0 0 1 .14-.25l9.41-5.43a.26.26 0 0 1 .29 0 .28.28 0 0 1 .15.25v10.86a.31.31 0 0 1-.15.26l-9.41 5.43a.23.23 0 0 1-.14.04Zm.28-11v10.2l8.83-5.1v-10.2Z" style="fill:#e0e0e0"/><path d="M316.39 149.23a.4.4 0 0 1-.15 0l-9.41-5.44a.29.29 0 0 1-.11-.39.3.3 0 0 1 .4-.11l9.41 5.43a.29.29 0 0 1 .11.4.3.3 0 0 1-.25.11Z" style="fill:#e0e0e0"/><path d="M307 154.67a.28.28 0 0 1-.15 0 .29.29 0 0 1-.1-.4l9.41-16.3a.27.27 0 0 1 .39-.1.28.28 0 0 1 .11.39l-9.41 16.3a.29.29 0 0 1-.25.11Z" style="fill:#e0e0e0"/><path d="M297.56 160.1a.32.32 0 0 1-.14 0 .31.31 0 0 1-.15-.25V149a.28.28 0 0 1 .15-.25l9.41-5.44a.3.3 0 0 1 .29 0 .29.29 0 0 1 .14.25v10.87a.29.29 0 0 1-.14.25l-9.41 5.44a.4.4 0 0 1-.15-.02Zm.29-11v10.2l8.84-5.1V144Z" style="fill:#e0e0e0"/><path d="M307 154.67a.28.28 0 0 1-.15 0l-9.41-5.43a.29.29 0 0 1-.11-.4.28.28 0 0 1 .4-.1l9.41 5.43a.29.29 0 0 1 .11.4.3.3 0 0 1-.25.1Z" style="fill:#e0e0e0"/><path d="M297.56 160.1a.35.35 0 0 1-.14 0 .29.29 0 0 1-.11-.4l9.41-16.3a.29.29 0 1 1 .51.29L297.82 160a.31.31 0 0 1-.26.1Z" style="fill:#e0e0e0"/><path d="M288.15 165.54a.23.23 0 0 1-.14 0 .29.29 0 0 1-.15-.25v-10.91a.29.29 0 0 1 .15-.25l9.41-5.43a.26.26 0 0 1 .29 0 .27.27 0 0 1 .14.25v10.87a.3.3 0 0 1-.14.25l-9.41 5.43a.28.28 0 0 1-.15.04Zm.29-11v10.2l8.83-5.1v-10.2Z" style="fill:#e0e0e0"/><path d="M297.56 160.1a.32.32 0 0 1-.14 0l-9.42-5.47a.29.29 0 1 1 .28-.5l9.42 5.43a.29.29 0 0 1 .1.4.29.29 0 0 1-.24.14Z" style="fill:#e0e0e0"/><path d="M288.15 165.54a.23.23 0 0 1-.14 0 .29.29 0 0 1-.11-.4l9.41-16.3a.28.28 0 0 1 .4-.1.28.28 0 0 1 .1.39l-9.41 16.3a.27.27 0 0 1-.25.11Z" style="fill:#e0e0e0"/><path d="M278.74 171a.4.4 0 0 1-.15 0 .3.3 0 0 1-.14-.25v-10.93a.27.27 0 0 1 .14-.25l9.42-5.44a.28.28 0 0 1 .28 0 .27.27 0 0 1 .15.25v10.87a.27.27 0 0 1-.15.25l-9.41 5.44a.32.32 0 0 1-.14.06Zm.29-11v10.2l8.83-5.1v-10.2Z" style="fill:#e0e0e0"/><path d="M288.15 165.54a.23.23 0 0 1-.14 0l-9.42-5.43a.29.29 0 0 1-.1-.4.27.27 0 0 1 .39-.1l9.41 5.43a.29.29 0 0 1 .11.4.29.29 0 0 1-.25.1Z" style="fill:#e0e0e0"/><path d="M278.74 171a.4.4 0 0 1-.15 0 .3.3 0 0 1-.1-.4l9.41-16.3a.28.28 0 0 1 .39-.11.29.29 0 0 1 .11.4l-9.4 16.24a.29.29 0 0 1-.26.17Z" style="fill:#e0e0e0"/><path d="M269.33 176.41a.28.28 0 0 1-.15 0 .29.29 0 0 1-.14-.25v-10.91a.29.29 0 0 1 .14-.25l9.41-5.43a.26.26 0 0 1 .29 0 .28.28 0 0 1 .15.25v10.87a.31.31 0 0 1-.15.25l-9.41 5.43a.23.23 0 0 1-.14.04Zm.28-11v10.2l8.83-5.1v-10.2Z" style="fill:#e0e0e0"/><path d="M278.74 171a.4.4 0 0 1-.15 0l-9.41-5.44a.28.28 0 0 1-.11-.39.29.29 0 0 1 .4-.11l9.41 5.43a.29.29 0 0 1 .11.4.3.3 0 0 1-.25.11Z" style="fill:#e0e0e0"/><path d="M269.33 176.41a.28.28 0 0 1-.15 0 .27.27 0 0 1-.1-.39l9.41-16.31a.27.27 0 0 1 .39-.1.28.28 0 0 1 .11.39l-9.41 16.3a.29.29 0 0 1-.25.11ZM311.67 146.53a.42.42 0 0 1-.15 0 .29.29 0 0 1-.14-.25v-10.91a.27.27 0 0 1 .14-.25l9.41-5.44a.3.3 0 0 1 .29 0 .29.29 0 0 1 .15.25v10.87a.28.28 0 0 1-.15.25l-9.41 5.44a.33.33 0 0 1-.14.04Zm.29-11v10.21l8.83-5.1v-10.21Z" style="fill:#e0e0e0"/><path d="M321.08 141.09a.28.28 0 0 1-.15 0l-9.41-5.43a.29.29 0 0 1-.1-.4.28.28 0 0 1 .39-.1l9.41 5.43a.29.29 0 0 1 .11.4.29.29 0 0 1-.25.1Z" style="fill:#e0e0e0"/><path d="M311.67 146.53a.42.42 0 0 1-.15 0 .29.29 0 0 1-.1-.4l9.41-16.3a.28.28 0 0 1 .39-.11.29.29 0 0 1 .11.4l-9.41 16.3a.31.31 0 0 1-.25.11Z" style="fill:#e0e0e0"/><path d="M302.26 152a.28.28 0 0 1-.15 0 .27.27 0 0 1-.14-.25V140.8a.29.29 0 0 1 .15-.25l9.41-5.43a.3.3 0 0 1 .29 0 .28.28 0 0 1 .15.25v10.87a.29.29 0 0 1-.15.25l-9.41 5.43a.23.23 0 0 1-.15.08Zm.28-11v10.2l8.83-5.1v-10.2Z" style="fill:#e0e0e0"/><path d="M311.67 146.53a.28.28 0 0 1-.15 0l-9.41-5.44a.28.28 0 0 1-.11-.39.29.29 0 0 1 .4-.11l9.41 5.44a.28.28 0 0 1 .11.39.29.29 0 0 1-.25.11Z" style="fill:#e0e0e0"/><path d="M302.26 152a.29.29 0 0 1-.26-.43l9.42-16.31a.28.28 0 0 1 .39-.1.28.28 0 0 1 .11.39l-9.41 16.31a.3.3 0 0 1-.25.14Z" style="fill:#e0e0e0"/><path d="M292.84 157.4a.33.33 0 0 1-.14 0 .29.29 0 0 1-.15-.25v-10.91a.28.28 0 0 1 .15-.25l9.41-5.44a.3.3 0 0 1 .29 0 .29.29 0 0 1 .14.25v10.87a.27.27 0 0 1-.14.25l-9.4 5.44a.42.42 0 0 1-.16.04Zm.29-11v10.21l8.83-5.1v-10.2Z" style="fill:#e0e0e0"/><path d="M302.25 152a.23.23 0 0 1-.14 0l-9.41-5.43a.29.29 0 0 1-.11-.4.29.29 0 0 1 .4-.1l9.41 5.43a.29.29 0 0 1 .1.4.29.29 0 0 1-.25.1Z" style="fill:#e0e0e0"/><path d="M292.84 157.4a.33.33 0 0 1-.14 0 .29.29 0 0 1-.11-.4l9.41-16.3a.29.29 0 0 1 .4-.11.29.29 0 0 1 .1.4l-9.41 16.3a.29.29 0 0 1-.25.11Z" style="fill:#e0e0e0"/><path d="M283.43 162.83a.23.23 0 0 1-.14 0 .28.28 0 0 1-.15-.25v-10.91a.29.29 0 0 1 .14-.25l9.42-5.42a.3.3 0 0 1 .29 0 .27.27 0 0 1 .14.25v10.87a.29.29 0 0 1-.14.25l-9.42 5.43a.23.23 0 0 1-.14.03Zm.29-11V162l8.83-5.1v-10.2Z" style="fill:#e0e0e0"/><path d="M292.84 157.4a.23.23 0 0 1-.14 0l-9.42-5.44a.28.28 0 0 1-.1-.39.29.29 0 0 1 .39-.11l9.42 5.44a.29.29 0 0 1 .1.39.27.27 0 0 1-.25.11Z" style="fill:#e0e0e0"/><path d="M283.43 162.83a.23.23 0 0 1-.14 0 .28.28 0 0 1-.11-.39l9.41-16.31a.29.29 0 0 1 .5.29l-9.41 16.31a.29.29 0 0 1-.25.1Z" style="fill:#e0e0e0"/><path d="M274 168.27a.42.42 0 0 1-.15 0 .29.29 0 0 1-.14-.25v-10.91a.29.29 0 0 1 .14-.25l9.41-5.44a.3.3 0 0 1 .29 0 .29.29 0 0 1 .15.25v10.87a.28.28 0 0 1-.15.25l-9.41 5.44a.33.33 0 0 1-.14.04Zm.29-11v10.2l8.83-5.1v-10.2Z" style="fill:#e0e0e0"/><path d="M283.43 162.83a.28.28 0 0 1-.15 0l-9.41-5.43a.29.29 0 0 1-.11-.4.3.3 0 0 1 .4-.1l9.41 5.43a.29.29 0 0 1 .11.4.3.3 0 0 1-.25.1Z" style="fill:#e0e0e0"/><path d="M274 168.27a.42.42 0 0 1-.15 0 .29.29 0 0 1-.1-.4l9.41-16.3a.28.28 0 0 1 .39-.11.29.29 0 0 1 .11.4l-9.41 16.3a.31.31 0 0 1-.25.11Z" style="fill:#e0e0e0"/><path d="M264.6 173.7a.23.23 0 0 1-.14 0 .27.27 0 0 1-.14-.25v-10.91a.29.29 0 0 1 .15-.25l9.41-5.43a.3.3 0 0 1 .29 0 .29.29 0 0 1 .15.25V168a.29.29 0 0 1-.15.25l-9.41 5.43a.28.28 0 0 1-.16.02Zm.29-11v10.2l8.84-5.1v-10.2Z" style="fill:#e0e0e0"/><path d="M274 168.27a.28.28 0 0 1-.15 0l-9.41-5.44a.28.28 0 0 1-.11-.39.29.29 0 0 1 .4-.11l9.41 5.44a.28.28 0 0 1 .11.39.29.29 0 0 1-.25.11Z" style="fill:#e0e0e0"/><path d="M269.33 176.41a.28.28 0 0 1-.15 0l-4.72-2.71a.3.3 0 0 1-.14-.17.41.41 0 0 1 0-.22l9.44-16.31a.3.3 0 0 1 .4-.1.29.29 0 0 1 .11.39L265 173.31l4.47 2.56a.28.28 0 0 1 .11.39.29.29 0 0 1-.25.15ZM325.8 116.34v-10.87l-4.72-2.71.02 10.86 4.7 2.72z" style="fill:#e0e0e0"/><path d="M325.8 116.34v-10.87l-4.72-2.71.02 10.86 4.7 2.72z" style="opacity:.15"/><path d="M316.39 122.06a.23.23 0 0 1-.14 0 .26.26 0 0 1-.15-.25V110.9a.29.29 0 0 1 .14-.25l9.42-5.43a.3.3 0 0 1 .29 0 .27.27 0 0 1 .14.25v10.87a.29.29 0 0 1-.14.25l-9.42 5.41a.23.23 0 0 1-.14.06Zm.29-11v10.2l8.83-5.1V106Z" style="fill:#e0e0e0"/><path d="M311.67 119.36a.3.3 0 0 1-.29-.24.29.29 0 0 1 .23-.34l14.14-2.73a.3.3 0 0 1 .34.23.29.29 0 0 1-.23.34l-14.14 2.73ZM302.27 124.79a.28.28 0 0 1-.28-.24.29.29 0 0 1 .23-.34l14.13-2.72a.29.29 0 0 1 .34.23.29.29 0 0 1-.23.34l-14.13 2.72ZM292.87 130.22a.29.29 0 0 1-.05-.57l14.18-2.73a.29.29 0 0 1 .11.57l-14.14 2.73ZM283.48 135.66a.28.28 0 0 1-.28-.24.28.28 0 0 1 .23-.34l14.13-2.73a.3.3 0 0 1 .34.23.29.29 0 0 1-.23.34l-14.14 2.73ZM274.08 141.09a.3.3 0 0 1-.28-.23.29.29 0 0 1 .23-.34l14.13-2.73a.29.29 0 0 1 .11.57l-14.13 2.73ZM264.69 146.53a.29.29 0 0 1-.05-.58l14.13-2.73a.29.29 0 0 1 .34.23.29.29 0 0 1-.23.34l-14.14 2.73Z" style="fill:#e0e0e0"/><path d="M325.8 116.63a.23.23 0 0 1-.14 0l-9.42-5.44a.28.28 0 0 1-.1-.39.29.29 0 0 1 .39-.11l9.42 5.44a.29.29 0 0 1 .1.39.27.27 0 0 1-.25.11Z" style="fill:#e0e0e0"/><path d="M316.39 122.06a.23.23 0 0 1-.14 0 .28.28 0 0 1-.11-.39l9.41-16.31a.29.29 0 0 1 .5.29l-9.41 16.31a.29.29 0 0 1-.25.1Z" style="fill:#e0e0e0"/><path d="M307 127.5a.42.42 0 0 1-.15 0 .29.29 0 0 1-.14-.25v-10.91a.27.27 0 0 1 .14-.25l9.41-5.44a.3.3 0 0 1 .29 0 .29.29 0 0 1 .15.25v10.87a.28.28 0 0 1-.15.25l-9.41 5.44a.33.33 0 0 1-.14.04Zm.28-11v10.21l8.83-5.1V111.4Z" style="fill:#e0e0e0"/><path d="M316.39 122.06a.28.28 0 0 1-.15 0l-9.41-5.43a.29.29 0 1 1 .29-.5l9.41 5.43a.29.29 0 0 1 .11.4.3.3 0 0 1-.25.1Z" style="fill:#e0e0e0"/><path d="M307 127.5a.42.42 0 0 1-.15 0 .29.29 0 0 1-.1-.4l9.41-16.3a.28.28 0 0 1 .39-.11.29.29 0 0 1 .11.4l-9.41 16.3a.31.31 0 0 1-.25.11Z" style="fill:#e0e0e0"/><path d="M297.56 132.93a.23.23 0 0 1-.14 0 .28.28 0 0 1-.15-.25v-10.91a.29.29 0 0 1 .15-.25l9.41-5.43a.3.3 0 0 1 .29 0 .27.27 0 0 1 .14.25v10.87a.29.29 0 0 1-.14.25l-9.41 5.43a.28.28 0 0 1-.15.04Zm.29-11v10.2l8.84-5.1v-10.2Z" style="fill:#e0e0e0"/><path d="M307 127.5a.28.28 0 0 1-.15 0l-9.43-5.5a.28.28 0 0 1-.11-.39.29.29 0 0 1 .4-.11l9.41 5.44a.28.28 0 0 1 .11.39.29.29 0 0 1-.23.17Z" style="fill:#e0e0e0"/><path d="M297.56 132.93a.25.25 0 0 1-.14 0 .28.28 0 0 1-.11-.39l9.41-16.31a.29.29 0 0 1 .4-.1.28.28 0 0 1 .11.39l-9.41 16.31a.31.31 0 0 1-.26.1Z" style="fill:#e0e0e0"/><path d="M288.15 138.37a.33.33 0 0 1-.14 0 .29.29 0 0 1-.15-.25v-10.91a.28.28 0 0 1 .14-.21l9.41-5.44a.3.3 0 0 1 .29 0 .29.29 0 0 1 .14.25v10.87a.27.27 0 0 1-.14.25l-9.41 5.44a.42.42 0 0 1-.14 0Zm.29-11v10.2l8.83-5.1v-10.2Z" style="fill:#e0e0e0"/><path d="M297.56 132.93a.23.23 0 0 1-.14 0l-9.42-5.47a.29.29 0 0 1-.11-.4.28.28 0 0 1 .39-.1l9.42 5.43a.29.29 0 0 1 .1.4.29.29 0 0 1-.24.14Z" style="fill:#e0e0e0"/><path d="M288.15 138.37a.33.33 0 0 1-.14 0 .29.29 0 0 1-.11-.4l9.41-16.3a.29.29 0 0 1 .4-.11.29.29 0 0 1 .1.4l-9.41 16.3a.29.29 0 0 1-.25.11Z" style="fill:#e0e0e0"/><path d="M278.74 143.8a.28.28 0 0 1-.15 0 .27.27 0 0 1-.14-.25v-10.91a.29.29 0 0 1 .14-.25L288 127a.28.28 0 0 1 .28 0 .26.26 0 0 1 .15.25v10.87a.27.27 0 0 1-.15.25l-9.41 5.43a.23.23 0 0 1-.13 0Zm.29-11V143l8.83-5.1v-10.2Z" style="fill:#e0e0e0"/><path d="M288.15 138.37a.23.23 0 0 1-.14 0l-9.42-5.44a.28.28 0 0 1-.1-.39.29.29 0 0 1 .39-.11l9.41 5.44a.28.28 0 0 1 .11.39.27.27 0 0 1-.25.11Z" style="fill:#e0e0e0"/><path d="M278.74 143.8a.28.28 0 0 1-.15 0 .29.29 0 0 1-.1-.39l9.41-16.31a.28.28 0 0 1 .39-.1.28.28 0 0 1 .11.39l-9.4 16.27a.29.29 0 0 1-.26.14Z" style="fill:#e0e0e0"/><path d="M269.33 149.24a.42.42 0 0 1-.15 0 .29.29 0 0 1-.18-.24v-10.92a.29.29 0 0 1 .14-.25l9.41-5.44a.3.3 0 0 1 .29 0 .29.29 0 0 1 .15.25v10.87a.28.28 0 0 1-.15.25l-9.41 5.44a.33.33 0 0 1-.1.04Zm.28-11v10.2l8.83-5.1v-10.2Z" style="fill:#e0e0e0"/><path d="M278.74 143.8a.28.28 0 0 1-.15 0l-9.41-5.43a.29.29 0 0 1-.11-.4.29.29 0 0 1 .4-.1l9.41 5.43a.29.29 0 0 1 .11.4.3.3 0 0 1-.25.1Z" style="fill:#e0e0e0"/><path d="M269.33 149.24a.42.42 0 0 1-.15 0 .28.28 0 0 1-.1-.4l9.41-16.3a.28.28 0 0 1 .39-.11.29.29 0 0 1 .11.4l-9.41 16.3a.31.31 0 0 1-.25.11ZM311.67 119.35a.4.4 0 0 1-.15 0 .3.3 0 0 1-.14-.26V108.2a.3.3 0 0 1 .14-.26l9.41-5.43a.3.3 0 0 1 .29 0 .29.29 0 0 1 .15.25v10.87a.29.29 0 0 1-.15.25l-9.41 5.44a.32.32 0 0 1-.14.03Zm.29-11v10.2l8.83-5.1v-10.2Z" style="fill:#e0e0e0"/><path d="M321.08 113.92a.28.28 0 0 1-.15 0l-9.41-5.43a.29.29 0 0 1-.1-.4.28.28 0 0 1 .39-.11l9.41 5.44a.29.29 0 0 1 .11.39.27.27 0 0 1-.25.11Z" style="fill:#e0e0e0"/><path d="M311.67 119.35a.4.4 0 0 1-.15 0 .29.29 0 0 1-.1-.4l9.41-16.3a.28.28 0 0 1 .39-.11.29.29 0 0 1 .11.4l-9.41 16.3a.3.3 0 0 1-.25.11Z" style="fill:#e0e0e0"/><path d="M302.26 124.79a.28.28 0 0 1-.15 0 .29.29 0 0 1-.14-.25v-10.91a.29.29 0 0 1 .15-.25l9.41-5.44a.3.3 0 0 1 .29 0 .31.31 0 0 1 .15.26v10.87a.29.29 0 0 1-.15.25l-9.41 5.43a.23.23 0 0 1-.15.04Zm.28-11V124l8.83-5.1v-10.2Z" style="fill:#e0e0e0"/><path d="M311.67 119.36a.42.42 0 0 1-.15 0l-9.41-5.44a.28.28 0 0 1-.11-.39.29.29 0 0 1 .4-.11l9.41 5.44a.28.28 0 0 1 .11.39.31.31 0 0 1-.25.11Z" style="fill:#e0e0e0"/><path d="M302.26 124.79a.28.28 0 0 1-.15 0 .29.29 0 0 1-.11-.39l9.42-16.31a.28.28 0 0 1 .39-.11.3.3 0 0 1 .11.4l-9.41 16.31a.3.3 0 0 1-.25.1Z" style="fill:#e0e0e0"/><path d="M292.84 130.22a.32.32 0 0 1-.14 0 .31.31 0 0 1-.15-.26v-10.89a.28.28 0 0 1 .15-.25l9.41-5.44a.3.3 0 0 1 .29 0 .29.29 0 0 1 .14.25v10.87a.29.29 0 0 1-.14.25l-9.4 5.44a.4.4 0 0 1-.16.03Zm.29-11v10.2l8.83-5.1v-10.2Z" style="fill:#e0e0e0"/><path d="M302.25 124.79a.23.23 0 0 1-.14 0l-9.41-5.43a.29.29 0 0 1-.11-.4.28.28 0 0 1 .4-.1l9.41 5.43a.29.29 0 0 1 .1.4.29.29 0 0 1-.25.1Z" style="fill:#e0e0e0"/><path d="M292.84 130.22a.32.32 0 0 1-.14 0 .29.29 0 0 1-.11-.4l9.41-16.3a.29.29 0 0 1 .4-.11.29.29 0 0 1 .1.4l-9.41 16.3a.29.29 0 0 1-.25.11Z" style="fill:#e0e0e0"/><path d="M283.43 135.66a.23.23 0 0 1-.14 0 .29.29 0 0 1-.15-.25V124.5a.29.29 0 0 1 .14-.25l9.42-5.43a.26.26 0 0 1 .29 0 .27.27 0 0 1 .14.25v10.87a.29.29 0 0 1-.14.25l-9.42 5.43a.23.23 0 0 1-.14.04Zm.29-11v10.2l8.83-5.1v-10.2Z" style="fill:#e0e0e0"/><path d="M292.84 130.23a.33.33 0 0 1-.14 0l-9.42-5.44a.28.28 0 0 1-.1-.39.29.29 0 0 1 .39-.11l9.42 5.44a.29.29 0 0 1 .1.39.29.29 0 0 1-.25.11Z" style="fill:#e0e0e0"/><path d="M283.43 135.66a.23.23 0 0 1-.14 0 .29.29 0 0 1-.11-.39l9.41-16.31a.28.28 0 0 1 .4-.1.29.29 0 0 1 .1.39l-9.41 16.31a.29.29 0 0 1-.25.1Z" style="fill:#e0e0e0"/><path d="M274 141.09a.4.4 0 0 1-.15 0 .3.3 0 0 1-.14-.26v-10.89a.27.27 0 0 1 .14-.25l9.41-5.44a.3.3 0 0 1 .29 0 .29.29 0 0 1 .15.25v10.87a.29.29 0 0 1-.15.25l-9.41 5.44a.32.32 0 0 1-.14.03Zm.29-11v10.2l8.83-5.1V125Z" style="fill:#e0e0e0"/><path d="M283.43 135.66a.28.28 0 0 1-.15 0l-9.41-5.43a.29.29 0 0 1-.11-.4.28.28 0 0 1 .4-.1l9.41 5.43a.29.29 0 0 1 .11.4.3.3 0 0 1-.25.1Z" style="fill:#e0e0e0"/><path d="M274 141.09a.4.4 0 0 1-.15 0 .29.29 0 0 1-.1-.4l9.41-16.3a.28.28 0 0 1 .39-.11.29.29 0 0 1 .11.4L274.27 141a.3.3 0 0 1-.27.09Z" style="fill:#e0e0e0"/><path d="M264.6 146.53a.23.23 0 0 1-.14 0 .29.29 0 0 1-.14-.25v-10.91a.29.29 0 0 1 .15-.25l9.41-5.43a.26.26 0 0 1 .29 0 .28.28 0 0 1 .15.25v10.87a.29.29 0 0 1-.15.25l-9.41 5.43a.28.28 0 0 1-.16.04Zm.29-11v10.2l8.84-5.1v-10.2Z" style="fill:#e0e0e0"/><path d="M274 141.1a.42.42 0 0 1-.15 0l-9.41-5.44a.28.28 0 0 1-.11-.39.29.29 0 0 1 .4-.11l9.41 5.44a.28.28 0 0 1 .11.39.31.31 0 0 1-.25.11Z" style="fill:#e0e0e0"/><path d="M269.33 149.24a.42.42 0 0 1-.15 0l-4.72-2.71a.33.33 0 0 1-.14-.17.4.4 0 0 1 0-.22l9.41-16.31a.29.29 0 0 1 .51.29l-9.27 16 4.47 2.57a.28.28 0 0 1 .11.39.31.31 0 0 1-.22.16ZM325.8 208.72v-10.87l-4.72-2.7.02 10.85 4.7 2.72z" style="fill:#e0e0e0"/><path d="M325.8 208.72v-10.87l-4.72-2.7.02 10.85 4.7 2.72z" style="opacity:.15"/><path d="M316.39 214.45a.33.33 0 0 1-.14 0 .27.27 0 0 1-.15-.25v-10.91a.29.29 0 0 1 .14-.25l9.42-5.44a.3.3 0 0 1 .29 0 .29.29 0 0 1 .14.25v10.87a.27.27 0 0 1-.14.25l-9.42 5.44a.33.33 0 0 1-.14.04Zm.29-11v10.2l8.83-5.1v-10.2Z" style="fill:#e0e0e0"/><path d="M311.67 211.74a.3.3 0 0 1-.29-.23.29.29 0 0 1 .23-.34l14.14-2.73a.29.29 0 1 1 .11.57l-14.14 2.73ZM302.27 217.17a.27.27 0 0 1-.28-.23.29.29 0 0 1 .23-.34l14.13-2.73a.29.29 0 0 1 .34.23.29.29 0 0 1-.23.34l-14.13 2.73ZM292.87 222.61a.3.3 0 0 1-.28-.24.29.29 0 0 1 .23-.34l14.18-2.72a.29.29 0 0 1 .11.57l-14.14 2.72ZM283.48 228a.27.27 0 0 1-.28-.23.28.28 0 0 1 .23-.34l14.13-2.73a.29.29 0 0 1 .34.23.29.29 0 0 1-.23.34L283.53 228ZM274.08 233.48a.3.3 0 0 1-.28-.24.29.29 0 0 1 .23-.34l14.13-2.73a.29.29 0 0 1 .34.23.29.29 0 0 1-.23.34l-14.13 2.73ZM264.69 238.91a.29.29 0 0 1-.05-.57l14.13-2.73a.29.29 0 0 1 .11.57l-14.14 2.73Z" style="fill:#e0e0e0"/><path d="M325.8 209a.23.23 0 0 1-.14 0l-9.42-5.43a.29.29 0 0 1 .29-.5l9.42 5.43a.3.3 0 0 1 .1.4.29.29 0 0 1-.25.1Z" style="fill:#e0e0e0"/><path d="M316.39 214.45a.23.23 0 0 1-.14 0 .29.29 0 0 1-.11-.4l9.41-16.3a.29.29 0 0 1 .4-.11.3.3 0 0 1 .1.4l-9.41 16.3a.29.29 0 0 1-.25.11Z" style="fill:#e0e0e0"/><path d="M307 219.88a.28.28 0 0 1-.15 0 .27.27 0 0 1-.14-.25v-10.91a.29.29 0 0 1 .14-.25l9.41-5.43a.3.3 0 0 1 .29 0 .29.29 0 0 1 .15.25v10.87a.29.29 0 0 1-.15.25l-9.41 5.43a.23.23 0 0 1-.14.04Zm.28-11v10.2l8.83-5.1v-10.2Z" style="fill:#e0e0e0"/><path d="M316.39 214.45a.28.28 0 0 1-.15 0l-9.41-5.45a.28.28 0 0 1-.11-.39.3.3 0 0 1 .4-.11l9.41 5.44a.28.28 0 0 1 .11.39.29.29 0 0 1-.25.12Z" style="fill:#e0e0e0"/><path d="M307 219.88a.29.29 0 0 1-.25-.43l9.41-16.31a.29.29 0 0 1 .39-.1.28.28 0 0 1 .11.39l-9.41 16.31a.3.3 0 0 1-.25.14Z" style="fill:#e0e0e0"/><path d="M297.56 225.32a.33.33 0 0 1-.14 0 .29.29 0 0 1-.15-.25v-10.91a.29.29 0 0 1 .15-.25l9.41-5.44a.3.3 0 0 1 .29 0 .29.29 0 0 1 .14.25v10.87a.27.27 0 0 1-.14.25l-9.41 5.44a.42.42 0 0 1-.15.04Zm.29-11v10.2l8.84-5.1v-10.2Z" style="fill:#e0e0e0"/><path d="M307 219.88a.28.28 0 0 1-.15 0l-9.41-5.43a.29.29 0 0 1-.11-.4.3.3 0 0 1 .4-.1l9.41 5.43a.29.29 0 0 1 .11.4.3.3 0 0 1-.25.1Z" style="fill:#e0e0e0"/><path d="M297.56 225.32a.25.25 0 0 1-.14 0 .29.29 0 0 1-.11-.4l9.41-16.3a.29.29 0 1 1 .51.29l-9.41 16.3a.32.32 0 0 1-.26.11Z" style="fill:#e0e0e0"/><path d="M288.15 230.75a.23.23 0 0 1-.14 0 .28.28 0 0 1-.15-.25v-10.91a.29.29 0 0 1 .15-.25l9.41-5.43a.3.3 0 0 1 .29 0 .29.29 0 0 1 .14.25V225a.29.29 0 0 1-.14.25l-9.41 5.43a.28.28 0 0 1-.15.07Zm.29-11V230l8.83-5.1v-10.2Z" style="fill:#e0e0e0"/><path d="M297.56 225.32a.23.23 0 0 1-.14 0l-9.42-5.47a.3.3 0 0 1-.11-.4.29.29 0 0 1 .39-.11l9.42 5.44a.28.28 0 0 1 .1.39.27.27 0 0 1-.24.15Z" style="fill:#e0e0e0"/><path d="M288.15 230.75a.23.23 0 0 1-.14 0 .28.28 0 0 1-.11-.39l9.41-16.36a.3.3 0 0 1 .4-.1.28.28 0 0 1 .1.39l-9.41 16.31a.29.29 0 0 1-.25.15Z" style="fill:#e0e0e0"/><path d="M278.74 236.19a.42.42 0 0 1-.15 0 .29.29 0 0 1-.14-.25V225a.29.29 0 0 1 .14-.25l9.42-5.44a.28.28 0 0 1 .28 0 .27.27 0 0 1 .15.25v10.87a.26.26 0 0 1-.15.25l-9.41 5.44a.33.33 0 0 1-.14.07Zm.29-11v10.2l8.83-5.1V220.1Z" style="fill:#e0e0e0"/><path d="M288.15 230.75a.23.23 0 0 1-.14 0l-9.42-5.43a.29.29 0 0 1 .29-.5l9.41 5.43a.29.29 0 0 1 .11.4.29.29 0 0 1-.25.1Z" style="fill:#e0e0e0"/><path d="M278.74 236.19a.28.28 0 0 1-.15 0 .3.3 0 0 1-.1-.4l9.41-16.3a.28.28 0 0 1 .39-.11.29.29 0 0 1 .11.4L279 236a.27.27 0 0 1-.26.19Z" style="fill:#e0e0e0"/><path d="M269.33 241.62a.28.28 0 0 1-.15 0 .27.27 0 0 1-.14-.25v-10.91a.29.29 0 0 1 .14-.25l9.41-5.43a.3.3 0 0 1 .29 0 .29.29 0 0 1 .15.25v10.87a.29.29 0 0 1-.15.25l-9.41 5.43a.23.23 0 0 1-.14.04Zm.28-11v10.2l8.83-5.1v-10.2Z" style="fill:#e0e0e0"/><path d="M278.74 236.19a.28.28 0 0 1-.15 0l-9.41-5.43a.29.29 0 1 1 .29-.51l9.41 5.44a.29.29 0 0 1-.14.54Z" style="fill:#e0e0e0"/><path d="M269.33 241.62a.28.28 0 0 1-.15 0 .27.27 0 0 1-.1-.39l9.41-16.31a.29.29 0 0 1 .39-.1.28.28 0 0 1 .11.39l-9.41 16.31a.3.3 0 0 1-.25.1ZM311.67 211.74a.28.28 0 0 1-.15 0 .29.29 0 0 1-.14-.25v-10.91a.29.29 0 0 1 .14-.25l9.41-5.43a.26.26 0 0 1 .29 0 .28.28 0 0 1 .15.25V206a.29.29 0 0 1-.15.25l-9.41 5.43a.23.23 0 0 1-.14.06Zm.29-11V211l8.83-5.1v-10.2Z" style="fill:#e0e0e0"/><path d="M321.08 206.31a.42.42 0 0 1-.15 0l-9.41-5.44a.28.28 0 0 1-.1-.39.28.28 0 0 1 .39-.11l9.41 5.44a.28.28 0 0 1 .11.39.29.29 0 0 1-.25.11Z" style="fill:#e0e0e0"/><path d="M311.67 211.74a.29.29 0 0 1-.25-.43l9.41-16.31a.27.27 0 0 1 .39-.1.28.28 0 0 1 .11.39l-9.41 16.31a.3.3 0 0 1-.25.14Z" style="fill:#e0e0e0"/><path d="M302.26 217.17a.4.4 0 0 1-.15 0 .3.3 0 0 1-.14-.25V206a.28.28 0 0 1 .15-.25l9.41-5.44a.3.3 0 0 1 .29 0 .29.29 0 0 1 .15.25v10.87a.29.29 0 0 1-.15.25l-9.41 5.44a.32.32 0 0 1-.15.05Zm.28-11v10.2l8.83-5.1v-10.2Z" style="fill:#e0e0e0"/><path d="M311.67 211.74a.28.28 0 0 1-.15 0l-9.41-5.43a.29.29 0 0 1-.11-.4.29.29 0 0 1 .4-.1l9.41 5.43a.29.29 0 0 1 .11.4.3.3 0 0 1-.25.1Z" style="fill:#e0e0e0"/><path d="M302.26 217.17a.4.4 0 0 1-.15 0 .29.29 0 0 1-.11-.4l9.42-16.3a.28.28 0 0 1 .39-.11.29.29 0 0 1 .11.4L302.51 217a.3.3 0 0 1-.25.17Z" style="fill:#e0e0e0"/><path d="M292.84 222.61a.23.23 0 0 1-.14 0 .29.29 0 0 1-.15-.25v-10.91a.29.29 0 0 1 .15-.25l9.41-5.43a.26.26 0 0 1 .29 0 .27.27 0 0 1 .14.25v10.87a.29.29 0 0 1-.14.25l-9.4 5.43a.28.28 0 0 1-.16.04Zm.29-11v10.2l8.83-5.1v-10.2Z" style="fill:#e0e0e0"/><path d="M302.25 217.18a.33.33 0 0 1-.14 0l-9.41-5.44a.28.28 0 0 1-.11-.39.29.29 0 0 1 .4-.11l9.41 5.44a.28.28 0 0 1 .1.39.29.29 0 0 1-.25.11Z" style="fill:#e0e0e0"/><path d="M292.84 222.61a.23.23 0 0 1-.14 0 .29.29 0 0 1-.11-.39l9.41-16.35a.29.29 0 0 1 .4-.1.28.28 0 0 1 .1.39l-9.41 16.31a.29.29 0 0 1-.25.14Z" style="fill:#e0e0e0"/><path d="M283.43 228a.32.32 0 0 1-.14 0 .31.31 0 0 1-.15-.25v-10.86a.27.27 0 0 1 .14-.25l9.42-5.44a.3.3 0 0 1 .29 0 .29.29 0 0 1 .14.25v10.87a.29.29 0 0 1-.14.25l-9.42 5.43a.32.32 0 0 1-.14 0Zm.29-11v10.2l8.83-5.1V212Z" style="fill:#e0e0e0"/><path d="M292.84 222.61a.23.23 0 0 1-.14 0l-9.42-5.43a.29.29 0 0 1-.1-.4.28.28 0 0 1 .39-.1l9.42 5.43a.3.3 0 0 1 .1.4.29.29 0 0 1-.25.1Z" style="fill:#e0e0e0"/><path d="M283.43 228a.32.32 0 0 1-.14 0 .29.29 0 0 1-.11-.4l9.41-16.3a.29.29 0 0 1 .4-.11.3.3 0 0 1 .1.4l-9.41 16.3a.29.29 0 0 1-.25.11Z" style="fill:#e0e0e0"/><path d="M274 233.48a.28.28 0 0 1-.15 0 .29.29 0 0 1-.14-.25v-10.91a.29.29 0 0 1 .14-.25l9.41-5.43a.26.26 0 0 1 .29 0 .28.28 0 0 1 .15.25v10.87a.29.29 0 0 1-.15.25l-9.41 5.43a.23.23 0 0 1-.14.04Zm.29-11v10.2l8.83-5.1v-10.2Z" style="fill:#e0e0e0"/><path d="M283.43 228.05a.42.42 0 0 1-.15 0l-9.41-5.44a.28.28 0 0 1-.11-.39.29.29 0 0 1 .4-.11l9.41 5.44a.28.28 0 0 1 .11.39.31.31 0 0 1-.25.11Z" style="fill:#e0e0e0"/><path d="M274 233.48a.29.29 0 0 1-.25-.43l9.41-16.31a.28.28 0 0 1 .39-.1.28.28 0 0 1 .11.39l-9.41 16.31a.3.3 0 0 1-.25.14Z" style="fill:#e0e0e0"/><path d="M264.6 238.92a.33.33 0 0 1-.14 0 .3.3 0 0 1-.14-.25v-10.91a.28.28 0 0 1 .15-.25l9.41-5.44a.3.3 0 0 1 .29 0 .29.29 0 0 1 .15.25v10.87a.29.29 0 0 1-.15.25l-9.41 5.44a.42.42 0 0 1-.16.04Zm.29-11v10.2l8.84-5.1v-10.2Z" style="fill:#e0e0e0"/><path d="M274 233.48a.28.28 0 0 1-.15 0l-9.39-5.48a.29.29 0 0 1-.11-.4.29.29 0 0 1 .4-.1l9.41 5.43a.29.29 0 0 1 .11.4.3.3 0 0 1-.27.15Z" style="fill:#e0e0e0"/><path d="M269.33 241.62a.28.28 0 0 1-.15 0l-4.72-2.7a.32.32 0 0 1-.14-.18.42.42 0 0 1 0-.22l9.41-16.3a.29.29 0 0 1 .51.29L265 238.52l4.47 2.56a.29.29 0 0 1 .11.4.3.3 0 0 1-.25.14Z" style="fill:#e0e0e0"/><path d="m263 401.52-2.6-27.61h-55.72l-2.59 27.61c-.54 4.88 2.39 9.86 8.85 13.58 11.93 6.88 31.26 6.88 43.17 0 6.48-3.72 9.41-8.7 8.89-13.58Z" style="fill:#37474f"/><path d="m262.37 394.76-.87-9.26c-.79 3.57-3.55 7-8.29 9.75-11.4 6.58-29.89 6.58-41.31 0-4.74-2.74-7.51-6.18-8.31-9.74l-.87 9.25c.71 3.8 3.57 7.49 8.62 10.4 11.72 6.76 30.72 6.76 42.43 0 5.04-2.91 7.9-6.6 8.6-10.4Z" style="fill:#ba68c8"/><path d="M220.67 415.31c-4.85-3.19-8.59-6.79-4.79-27.39l.5-14h-11.7l-2.59 27.61c-.54 4.88 2.39 9.86 8.85 13.58 11.93 6.88 31.26 6.88 43.17 0-9.33 4.09-28.59 3.38-33.44.2Z" style="opacity:.2"/><path d="M212.8 386.39c-10.91-6.29-10.91-16.5 0-22.8s28.6-6.3 39.5 0 10.92 16.51 0 22.8-28.58 6.3-39.5 0ZM233.45 353.8h-.89c-12.65.14-23.91-3.14-31.71-9.3a6.87 6.87 0 1 1 8.52-10.79c5.35 4.22 13.56 6.48 23.09 6.33h.2c9.54.11 17.74-2.11 23.09-6.33a6.87 6.87 0 1 1 8.52 10.79c-7.62 6.01-18.53 9.3-30.82 9.3Z" style="fill:#455a64"/><path d="M205 343c2.07 0 9.82 5.79 27.11 5.79s28.82-6.79 34.34-12a6.72 6.72 0 0 0-1.06-1.92 6.87 6.87 0 0 0-9.66-1.14c-5.35 4.22-13.55 6.44-23.09 6.33h-.2c-9.53.15-17.74-2.11-23.09-6.33a6.87 6.87 0 1 0-8.52 10.79c7.8 6.16 19.06 9.44 31.71 9.3a56.77 56.77 0 0 1-20-4C205.71 347.24 203 343 205 343Z" style="fill:#37474f"/><path d="M273.1 284.25c0 1.11-.09 2.21-.13 3.3-.06 1.3-.11 2.58-.16 3.84 0 1.09-.1 2.16-.15 3.21v.92c-.07 1.53-.14 3-.2 4.46-.11 2.4-.23 4.67-.33 6.8 0 .68-.07 1.36-.1 2-.09 1.81-.18 3.48-.26 5 0 .56-.05 1.1-.08 1.62s0 .77 0 1.13c-.06.89-.1 1.71-.14 2.44v.95c0 .3 0 .56-.06.82 0 .86-.08 1.55-.11 2h-.06v.87c0 5.76-3.95 11.23-11.14 15.37s-17.09 6.57-27.5 6.57-20.17-2.33-27.5-6.57-11.14-9.61-11.14-15.37v-.87h-.06v-.84c0-.33 0-.57-.06-.91s0-.62-.05-1 0-.53 0-.81c0-.85-.1-1.83-.16-2.91 0-.53-.05-1.09-.09-1.67-.1-2.08-.22-4.48-.36-7.14 0-.67-.07-1.36-.1-2.06 0-.86-.09-1.76-.13-2.68-.12-2.3-.23-4.72-.33-7.28-.1-2-.19-4.14-.28-6.32-.07-1.62-.14-3.27-.2-4.95a30.26 30.26 0 0 0 6.8 6.36 56.14 56.14 0 0 0 5.1 3c1.8.8 3.56 1.7 5.44 2.32a70.42 70.42 0 0 0 46.42 0c1.88-.62 3.64-1.52 5.44-2.32a56.14 56.14 0 0 0 5.1-3 30.6 30.6 0 0 0 6.58-6.28Z" style="fill:#f5f5f5"/><path d="M274 283c-.67 17.16-1.46 32.31-1.95 40.71 0 5.83-3.86 11.66-11.58 16.13s-17.81 6.67-27.93 6.67-20.22-2.22-27.93-6.67-11.57-10.3-11.57-16.13c-.48-8.4-1.28-23.54-1.94-40.7.28.44.58.87.91 1.29.77 19.15 1.63 34.66 1.84 38.54h.06v.87c0 5.76 4 11.23 11.14 15.37s17.1 6.57 27.5 6.57 20.18-2.33 27.5-6.57 11.14-9.61 11.14-15.37v-.87h.06c.22-3.88 1.08-19.39 1.85-38.54.33-.48.63-.9.9-1.3Z" style="fill:#e0e0e0"/><path d="M191.1 283c.28.44.58.87.91 1.29a30.26 30.26 0 0 0 6.8 6.36 56.14 56.14 0 0 0 5.1 3c1.8.8 3.56 1.7 5.44 2.32a70.33 70.33 0 0 0 46.42 0 46.46 46.46 0 0 0 10.54-5.29 30.6 30.6 0 0 0 6.79-6.35c.33-.43.63-.85.91-1.3Z" style="fill:#e0e0e0"/><ellipse cx="232.56" cy="282.95" rx="41.45" ry="18.66" style="fill:#e0e0e0"/><path d="M274.83 299.47a3.63 3.63 0 0 0-3.61.2 11.39 11.39 0 0 0-5.56 9l-.73 39.57a1.92 1.92 0 0 0 .77 1.78l2.47 1.59a1.92 1.92 0 0 0 1.93-.09l2.26-1.16a6.2 6.2 0 0 0 3-4.54l3.26-41.16c.14-1.76-.38-3-1.32-3.62Z" style="fill:#263238"/><path d="M270.1 351.55c-1.53.78-2.75 0-2.71-1.7l.73-39.56a11.38 11.38 0 0 1 5.56-9c3-1.54 5.22 0 4.95 3.43l-3.26 41.16a6.2 6.2 0 0 1-3 4.54Z" style="fill:#37474f"/><path d="m274.83 299.47 2.47 1.59a3.59 3.59 0 0 0-3.62.2 11.19 11.19 0 0 0-4.9 5.89l-2.47-1.59a11.29 11.29 0 0 1 4.91-5.89 3.63 3.63 0 0 1 3.61-.2Z" style="fill:#455a64"/><path d="m278.08 310.13-2.23-1.44-2.6 1.34-3.18 64.48c2.59 1.66 5.06 1.86 7.11.8l2.59-1.33c2.57-1.31 4.49-4.59 5.15-9.42l3.6-26.44c1.41-10.37-3.52-23.5-10.44-27.99Z" style="fill:#ba68c8"/><g style="opacity:.2"><path d="m278.08 310.13-2.23-1.44-2.6 1.34-3.18 64.48c2.59 1.66 5.06 1.86 7.11.8l2.59-1.33c2.57-1.31 4.49-4.59 5.15-9.42l3.6-26.44c1.41-10.37-3.52-23.5-10.44-27.99Z" style="fill:#fff"/></g><path d="m270.07 374.51 3.18-64.51 2.23 1.44c6.95 4.48 11.85 17.62 10.44 28l-3.61 26.45c-1.18 8.68-6.42 12.37-12.24 8.62Z" style="fill:#ba68c8"/><path d="m270.07 374.51 3.18-64.51 2.23 1.44c6.95 4.48 11.85 17.62 10.44 28l-3.61 26.45c-1.18 8.68-6.42 12.37-12.24 8.62Z" style="opacity:.2"/><path d="M282.41 365.16c-.57 4.23-4.87 5.66-7.77 2.26s-3.84-7.68-3.2-20.78l-1.37 27.87c5.82 3.75 11.06.06 12.24-8.61Z" style="opacity:.2"/><path d="M190.29 299.47a3.63 3.63 0 0 1 3.61.2 11.39 11.39 0 0 1 5.56 9l.73 39.57a1.94 1.94 0 0 1-.77 1.78l-2.42 1.62a1.92 1.92 0 0 1-1.93-.09l-2.26-1.16a6.21 6.21 0 0 1-3-4.54l-3.26-41.16c-.13-1.76.39-3 1.33-3.62Z" style="fill:#263238"/><path d="M195 351.55c1.53.78 2.74 0 2.71-1.7l-.71-39.56a11.38 11.38 0 0 0-5.56-9c-3-1.54-5.22 0-5 3.43l3.26 41.16a6.21 6.21 0 0 0 3 4.54Z" style="fill:#37474f"/><path d="m190.29 299.47-2.48 1.59a3.61 3.61 0 0 1 3.63.2 11.19 11.19 0 0 1 4.9 5.89l2.47-1.59a11.29 11.29 0 0 0-4.91-5.89 3.63 3.63 0 0 0-3.61-.2Z" style="fill:#455a64"/><path d="m187 310.13 2.23-1.44 2.6 1.34 3.18 64.48c-2.59 1.66-5.06 1.86-7.11.8l-2.55-1.31c-2.57-1.31-4.49-4.59-5.15-9.42l-3.6-26.44c-1.42-10.39 3.48-23.52 10.4-28.01Z" style="fill:#ba68c8"/><g style="opacity:.2"><path d="m187 310.13 2.23-1.44 2.6 1.34 3.18 64.48c-2.59 1.66-5.06 1.86-7.11.8l-2.55-1.31c-2.57-1.31-4.49-4.59-5.15-9.42l-3.6-26.44c-1.42-10.39 3.48-23.52 10.4-28.01Z" style="fill:#fff"/></g><path d="M195.05 374.51 191.87 310l-2.23 1.44c-6.95 4.48-11.85 17.62-10.44 28l3.6 26.45c1.2 8.68 6.43 12.37 12.25 8.62Z" style="fill:#ba68c8"/><path d="M195.05 374.51 191.87 310l-2.23 1.44c-6.95 4.48-11.85 17.62-10.44 28l3.6 26.45c1.2 8.68 6.43 12.37 12.25 8.62Z" style="opacity:.2"/><path d="M182.7 365.16c.58 4.23 4.88 5.66 7.78 2.26s3.84-7.68 3.19-20.78l1.38 27.87c-5.82 3.75-11.06.06-12.25-8.61Z" style="opacity:.2"/><path d="M274.46 209.48v.05a.6.6 0 0 1 0 .19v7c0 1.62-.05 3.26-.07 4.91 0 1.85-.07 3.7-.1 5.57v.31c0 1.21-.05 2.44-.08 3.66 0 1.79-.08 3.59-.14 5.39 0 1.25-.06 2.49-.1 3.75-.13 4.48-.28 8.93-.43 13.28q-.12 3.28-.25 6.47c0 .72-.06 1.43-.08 2.14 0 .31 0 .63-.05.94v.38a30.14 30.14 0 0 1-6.79 6.35 53.89 53.89 0 0 1-5.1 3c-1.8.8-3.56 1.7-5.44 2.32a70.42 70.42 0 0 1-46.42 0c-1.88-.62-3.64-1.52-5.44-2.32a53.89 53.89 0 0 1-5.1-3 29.81 29.81 0 0 1-6.8-6.36v-.37c-.12-3.12-.24-6.35-.36-9.63 0-.68-.05-1.35-.07-2l-.07-2c-.1-3-.2-6.06-.29-9.11-.18-6.25-.34-12.55-.43-18.67 0-1.67 0-3.32-.07-5v-7a.54.54 0 0 1 0-.18v-.06a30.65 30.65 0 0 0 7.83 6.52c1.66 1.06 3.49 1.87 5.24 2.76 1.83.71 3.63 1.54 5.54 2.07a78.88 78.88 0 0 0 46.6 0 54.3 54.3 0 0 0 5.54-2.09 58.05 58.05 0 0 0 5.24-2.75 30.74 30.74 0 0 0 7.69-6.52Z" style="fill:#f5f5f5"/><path d="M192 263.52a14.3 14.3 0 0 1-.91-1.29v-.17c-.69-17.44-1.26-37-1.3-53.58.27.44.55.88.86 1.29 0 16.95.66 36.56 1.35 53.38v.37ZM275.32 208.48c0 16.61-.61 36.13-1.3 53.57v.17a14.44 14.44 0 0 1-.91 1.3v-.38c.69-16.84 1.3-36.43 1.35-53.38.31-.41.59-.84.86-1.28Z" style="fill:#e0e0e0"/><path d="M189.79 208.48c.27.44.55.88.86 1.29a30.39 30.39 0 0 0 7.33 7 50 50 0 0 0 10.8 5.43 72 72 0 0 0 47.56 0 49 49 0 0 0 10.79-5.42 30 30 0 0 0 7.33-7c.31-.41.59-.84.86-1.28ZM234.12 234.82a1.58 1.58 0 1 1-1.58-1.58 1.58 1.58 0 0 1 1.58 1.58ZM261 229.3a1.58 1.58 0 1 1-1.57-1.58 1.57 1.57 0 0 1 1.57 1.58Z" style="fill:#e0e0e0"/><circle cx="205.7" cy="229.3" r="1.58" style="fill:#e0e0e0"/><path d="M192 263.52a29.81 29.81 0 0 0 6.8 6.36 53.89 53.89 0 0 0 5.1 3c1.8.8 3.56 1.7 5.44 2.32a70.42 70.42 0 0 0 46.42 0c1.88-.62 3.64-1.52 5.44-2.32a53.89 53.89 0 0 0 5.1-3 30.14 30.14 0 0 0 6.79-6.35l.91-1.3s-6.91 18.49-41.45 18.49-41.46-18.48-41.46-18.48Z" style="fill:#e0e0e0"/><ellipse cx="232.56" cy="208.48" rx="42.76" ry="19.24" style="fill:#e0e0e0"/><path d="M274.46 191.3a30.7 30.7 0 0 1-7.82 6.51c-1.67 1.06-3.48 1.87-5.24 2.76a56.77 56.77 0 0 1-5.54 2.09 78.88 78.88 0 0 1-46.6 0c-1.91-.54-3.71-1.36-5.54-2.08-1.75-.89-3.58-1.7-5.24-2.75a30.86 30.86 0 0 1-7.83-6.52V180.91c0-1.38.05-2.73.08-4 0-.82 0-1.63.06-2.41 0-1.46.09-2.88.14-4.24.06-1.2.12-2.37.18-3.49v-.76q.13-2.18.3-4.08a96.64 96.64 0 0 1 7.71-29.31c-.07 5 3.19 9.94 9.77 13.75 13 7.52 34.12 7.52 47.15 0 6.58-3.79 9.84-8.77 9.77-13.75a96.64 96.64 0 0 1 7.71 29.31c.08.9.16 1.83.22 2.81s.12 1.8.17 2.75c0 .59.06 1.2.09 1.8.05.95.08 1.91.11 2.91.05 1.23.09 2.5.12 3.8.21 4.67.24 9.84.23 15.3Z" style="fill:#f5f5f5"/><path d="M274.46 161.8a99.11 99.11 0 0 0-9.16-32.72 11.48 11.48 0 0 1 .6 3.49 96.64 96.64 0 0 1 7.71 29.31c.08.9.16 1.83.22 2.81s.12 1.81.17 2.75c0 .59.06 1.2.09 1.8.05.95.08 1.91.11 2.91.05 1.23.09 2.5.12 3.8.12 4.72.15 9.89.14 15.35a.6.6 0 0 1 0 .19v.05c.31-.42.59-.85.86-1.29v-1.21c0-10.84-.24-20.42-.86-27.24Zm-83.81 0c-.64 7.06-.88 17.08-.86 28.44.27.44.55.88.86 1.3v-.05a.54.54 0 0 1 0-.18v-10.45c0-1.38.05-2.73.08-4 0-.82 0-1.63.06-2.41 0-1.46.09-2.88.14-4.24.06-1.2.12-2.37.18-3.49v-.76q.13-2.18.3-4.08a96.64 96.64 0 0 1 7.71-29.31 11.39 11.39 0 0 1 .61-3.53 99.35 99.35 0 0 0-9.08 32.76Z" style="fill:#e0e0e0"/><path d="M190.65 191.31a30.86 30.86 0 0 0 7.83 6.52c1.66 1 3.49 1.86 5.24 2.75 1.83.72 3.63 1.54 5.54 2.08a78.88 78.88 0 0 0 46.6 0 56.77 56.77 0 0 0 5.54-2.09c1.76-.89 3.57-1.7 5.24-2.76a30.7 30.7 0 0 0 7.82-6.51l.86-1s-8.12 17.14-42.76 17.14-42.77-17.19-42.77-17.19Z" style="fill:#e0e0e0"/><ellipse cx="232.56" cy="132.72" rx="33.34" ry="19.24" style="fill:#e0e0e0"/><circle cx="232.56" cy="176.88" r="20.69" style="fill:#ba68c8"/><circle cx="232.56" cy="176.88" r="20.69" style="opacity:.15"/><circle cx="232.56" cy="179.29" r="20.69" transform="rotate(-76.72 232.543 179.29)" style="fill:#ba68c8"/><path d="m240 198.59-6.69-18.39 17 9.78c.14-.23.27-.46.4-.7l-16.95-9.79L253 176.1c0-.27-.09-.54-.14-.8l-19.28 3.4 12.58-15c-.2-.18-.41-.36-.62-.52l-12.58 15v-19.57h-.81v19.57l-12.58-15c-.21.16-.41.34-.62.52l12.58 15-19.27-3.4-.15.8 19.28 3.39-16.95 9.79c.13.24.26.47.4.7l17-9.78-6.7 18.39.76.27 6.7-18.39 6.69 18.39c.22-.08.47-.18.71-.27Z" style="opacity:.2"/><circle cx="232.56" cy="179.29" r="14.94" style="fill:#ba68c8"/><circle cx="232.56" cy="179.29" r="14.94" style="opacity:.15"/><path d="M232.56 164.34a14.93 14.93 0 0 0-14.87 13.53 14.93 14.93 0 0 0 29.74.09 14.94 14.94 0 0 0-14.87-13.62Z" style="fill:#ba68c8"/><path d="M232.56 164.34a14.93 14.93 0 0 0-14.87 13.53 14.93 14.93 0 0 0 29.74.09 14.94 14.94 0 0 0-14.87-13.62Z" style="fill:#fff;opacity:.6000000000000001"/><path d="M256.13 121.61c-13 7.53-34.13 7.53-47.15 0-8.14-4.7-11.2-11.21-9.16-17.28.45-1 .89-1.91 1.36-2.85A158.43 158.43 0 0 1 229.55 62a4.23 4.23 0 0 1 6 0 159 159 0 0 1 28.33 39.39c.49 1 1 2 1.41 3 2.02 6.04-1.04 12.54-9.16 17.22Z" style="fill:#ba68c8"/><path d="M232.55 123c-8.16 0-15.77-1.8-21.42-5.07-5.95-3.43-8.59-7.8-7.29-12 .39-.84.78-1.67 1.19-2.49 9.28-18.78 17.86-28.89 23.09-35.72 0 0-9 16.17-10.85 30s8.31 20.55 15.28 25.28Z" style="opacity:.15"/><path d="M236 68.27a88.74 88.74 0 0 1 7.38 8.24c2.32 2.87 4.49 5.86 6.55 8.92 1 1.53 2 3.1 3 4.66s1.91 3.16 2.76 4.79a88.65 88.65 0 0 1 4.76 10l-5.91-9.3c-2-3.09-4-6.16-6-9.19s-4.1-6.06-6.19-9.08Z" style="fill:#fff;opacity:.5"/><path d="M235 63.14 232.54 39l-2.47 24.19a1.24 1.24 0 0 0 .73 1 3.84 3.84 0 0 0 3.49 0 1.23 1.23 0 0 0 .72-1Z" style="fill:#455a64"/><path d="M226.15 94.9a.62.62 0 0 1-.14-.5.66.66 0 0 1 .26-.45l5.41-4.26.41-.29a.82.82 0 0 1 .46-.13h1.94a.66.66 0 0 1 .48.19.69.69 0 0 1 .2.48V106a.66.66 0 0 1-.2.48.67.67 0 0 1-.48.2h-2a.67.67 0 0 1-.48-.2.66.66 0 0 1-.2-.48V93.73l-3.53 2.76a.64.64 0 0 1-.49.14.74.74 0 0 1-.46-.26ZM234.13 177a2.8 2.8 0 0 0 1-1.22 3.65 3.65 0 0 0 .21-1.15 2.55 2.55 0 0 0-.62-1.73 3.36 3.36 0 0 0-4.08 0 4 4 0 0 0-.91 1.72.8.8 0 0 1-.3.49.72.72 0 0 1-.44.16h-2a.69.69 0 0 1-.49-.19.56.56 0 0 1-.19-.48 5.54 5.54 0 0 1 .58-2.12 5.68 5.68 0 0 1 1.33-1.75 6.59 6.59 0 0 1 4.37-1.62 6.63 6.63 0 0 1 2.72.52 5.72 5.72 0 0 1 1.89 1.32 5.26 5.26 0 0 1 1.11 1.79 5.69 5.69 0 0 1 .36 2 8.91 8.91 0 0 1-.07 1.18 3.72 3.72 0 0 1-.35 1.12 5.2 5.2 0 0 1-.8 1.17 10 10 0 0 1-1.39 1.31l-4.61 4.21h6.92a.67.67 0 0 1 .48.2.65.65 0 0 1 .2.47v1.77a.68.68 0 0 1-.68.68h-11.64a.69.69 0 0 1-.48-.2.66.66 0 0 1-.19-.48v-1.52a1.16 1.16 0 0 1 .24-.73 2.57 2.57 0 0 1 .43-.44ZM237.93 246.85a.68.68 0 0 1 .67.67v1.77a.79.79 0 0 1-.19.51 3 3 0 0 1-.36.41l-3.63 3.84a7.47 7.47 0 0 1 2 .55 5.12 5.12 0 0 1 1.55 1 4.33 4.33 0 0 1 1 1.51 5.23 5.23 0 0 1 .35 1.94 5.07 5.07 0 0 1-.51 2.31 5 5 0 0 1-1.42 1.7 6.58 6.58 0 0 1-2.15 1.08 9.12 9.12 0 0 1-2.67.37 10 10 0 0 1-3-.41 7.25 7.25 0 0 1-2.14-1.06 4.52 4.52 0 0 1-1.31-1.47 4.2 4.2 0 0 1-.52-1.62.55.55 0 0 1 .18-.49.72.72 0 0 1 .49-.18h2a.56.56 0 0 1 .41.16 2 2 0 0 1 .33.46 2.39 2.39 0 0 0 .4.56 2.43 2.43 0 0 0 .66.47 4 4 0 0 0 1 .34 8.13 8.13 0 0 0 1.52.12 4.38 4.38 0 0 0 2.45-.61 1.94 1.94 0 0 0 .93-1.73 1.67 1.67 0 0 0-.93-1.6 5.23 5.23 0 0 0-2.45-.49h-2.07a.65.65 0 0 1-.47-.2.61.61 0 0 1-.2-.47v-1.77a.84.84 0 0 1 .15-.52c.13-.16.25-.3.36-.41l3.49-3.67H227a.62.62 0 0 1-.48-.2.65.65 0 0 1-.2-.47v-1.77a.68.68 0 0 1 .68-.67ZM234.32 332.23a.67.67 0 0 1-.48-.2.65.65 0 0 1-.2-.47v-3h-7.72a.65.65 0 0 1-.47-.2.61.61 0 0 1-.2-.47v-1.79a1.11 1.11 0 0 1 .16-.61c.11-.18.24-.36.38-.56l7.63-9.52a1.37 1.37 0 0 1 1-.62h1.89a.63.63 0 0 1 .48.2.65.65 0 0 1 .2.47v10h2.14a.68.68 0 0 1 .67.67v1.77a.61.61 0 0 1-.2.47.65.65 0 0 1-.47.2H237v3a.65.65 0 0 1-.2.47.67.67 0 0 1-.48.2Zm-.68-6.8v-5.34l-4.26 5.34Z" style="fill:#263238"/><path d="M227.43 368.74a.63.63 0 0 1 .2-.48.65.65 0 0 1 .47-.2h9.37a.65.65 0 0 1 .47.2.67.67 0 0 1 .2.48v1.76a.68.68 0 0 1-.67.68h-7l-.28 3.19a4.4 4.4 0 0 1 1.33-.33c.45 0 .81-.05 1.09-.05a8.62 8.62 0 0 1 2.59.38 5.88 5.88 0 0 1 2.07 1.11 5.2 5.2 0 0 1 1.37 1.8 5.86 5.86 0 0 1 .5 2.47 6.65 6.65 0 0 1-.51 2.73 5.18 5.18 0 0 1-1.4 1.87 5.63 5.63 0 0 1-2.08 1.07 9.5 9.5 0 0 1-2.54.33 9.81 9.81 0 0 1-3-.39 6 6 0 0 1-2-1.09 4.67 4.67 0 0 1-1.22-1.57 5 5 0 0 1-.46-1.85.55.55 0 0 1 .19-.49.73.73 0 0 1 .48-.19h2a.68.68 0 0 1 .45.17.81.81 0 0 1 .28.43 2.14 2.14 0 0 0 .47.94 2.33 2.33 0 0 0 .75.57 3 3 0 0 0 .94.28 7.8 7.8 0 0 0 1.1.08 3.34 3.34 0 0 0 2.29-.77 2.69 2.69 0 0 0 .87-2.12 2.36 2.36 0 0 0-.87-1.87 3.44 3.44 0 0 0-2.29-.77 5.18 5.18 0 0 0-1.18.11 2.73 2.73 0 0 0-.71.26l-.5.26a1.22 1.22 0 0 1-.58.12h-2.29a.65.65 0 0 1-.47-.2.63.63 0 0 1-.2-.48Z" style="fill:#e0e0e0"/><path d="M161.53 388.72a2.61 2.61 0 1 1-2.6-2.6 2.61 2.61 0 0 1 2.6 2.6Z" style="fill:#ba68c8"/><path d="M158.93 389.19H82.7a.47.47 0 0 1 0-.93h76.23a.47.47 0 0 1 0 .93Z" style="fill:#ba68c8"/><circle cx="57.49" cy="388.72" r="25.21" style="fill:#fff"/><path d="M57.49 414.49a25.77 25.77 0 1 1 25.76-25.77 25.8 25.8 0 0 1-25.76 25.77Zm0-50.42a24.66 24.66 0 1 0 24.65 24.65 24.68 24.68 0 0 0-24.65-24.65Z" style="fill:#ba68c8"/><path d="M52.94 402.39a2.49 2.49 0 0 1-2-1l-8-10.29a2.52 2.52 0 1 1 4-3.1l6 7.73L68 376.05a2.52 2.52 0 1 1 4 3.06L54.94 401.4a2.53 2.53 0 0 1-2 1ZM104.64 381.88a.26.26 0 0 1 .09-.18.27.27 0 0 1 .17-.06h.72a.24.24 0 0 1 .18.07.21.21 0 0 1 .07.17 2.19 2.19 0 0 1-.19.74 1.81 1.81 0 0 1-.48.67 2.34 2.34 0 0 1-.82.48 3.27 3.27 0 0 1-1.19.19 3.09 3.09 0 0 1-1.1-.18 2.25 2.25 0 0 1-1.33-1.3 3.24 3.24 0 0 1-.22-1v-1.51a3.18 3.18 0 0 1 .22-1 2.27 2.27 0 0 1 .52-.79 2.24 2.24 0 0 1 .81-.51 3.09 3.09 0 0 1 1.1-.19 3.49 3.49 0 0 1 1.19.19 2.52 2.52 0 0 1 .82.49 1.81 1.81 0 0 1 .48.67 2.26 2.26 0 0 1 .19.73.24.24 0 0 1-.07.18.29.29 0 0 1-.18.07h-.72a.32.32 0 0 1-.18-.06.26.26 0 0 1-.09-.18.93.93 0 0 0-.13-.35 1.31 1.31 0 0 0-.27-.31 1.44 1.44 0 0 0-.43-.22 2.25 2.25 0 0 0-.61-.08 1.67 1.67 0 0 0-.62.11 1.19 1.19 0 0 0-.43.28 1.16 1.16 0 0 0-.27.44 1.52 1.52 0 0 0-.11.53v1.51a1.62 1.62 0 0 0 .11.54 1.17 1.17 0 0 0 .27.42 1.21 1.21 0 0 0 .43.29 1.67 1.67 0 0 0 .62.11 1.91 1.91 0 0 0 .61-.09 1.24 1.24 0 0 0 .43-.22 1.13 1.13 0 0 0 .28-.3 1.25 1.25 0 0 0 .13-.35ZM111.11 382.75a.23.23 0 0 1 .17.07.28.28 0 0 1 .07.17v.64a.26.26 0 0 1-.07.17.23.23 0 0 1-.17.07h-4a.23.23 0 0 1-.17-.07.22.22 0 0 1-.07-.17v-5.81a.21.21 0 0 1 .07-.17.25.25 0 0 1 .17-.08h.73a.28.28 0 0 1 .25.25v4.93ZM111.9 379.92a3.34 3.34 0 0 1 .19-.95 2.3 2.3 0 0 1 .49-.77 2.4 2.4 0 0 1 .81-.52 3.11 3.11 0 0 1 1.15-.2 3.34 3.34 0 0 1 1.15.19 2.4 2.4 0 0 1 .81.52 2.34 2.34 0 0 1 .49.78 2.92 2.92 0 0 1 .2.95V381.53a3.21 3.21 0 0 1-.19 1 2.25 2.25 0 0 1-.49.78 2.2 2.2 0 0 1-.82.51 3.58 3.58 0 0 1-2.3 0 2.11 2.11 0 0 1-1.3-1.29 3.21 3.21 0 0 1-.19-1v-1.23c-.01-.14-.01-.3 0-.38Zm4.1.08a1.44 1.44 0 0 0-.41-1 1.49 1.49 0 0 0-1-.35 1.46 1.46 0 0 0-1 .35 1.49 1.49 0 0 0-.42 1v1.52a1.32 1.32 0 0 0 1.43 1.35 1.49 1.49 0 0 0 1-.35 1.42 1.42 0 0 0 .41-1v-.76c0-.28-.01-.56-.01-.76ZM120.54 377.48a3.14 3.14 0 0 1 1.06.17 2.54 2.54 0 0 1 .77.4 1.79 1.79 0 0 1 .46.54 1.39 1.39 0 0 1 .17.55.2.2 0 0 1-.06.18.28.28 0 0 1-.18.06h-.63a.37.37 0 0 1-.23-.06.67.67 0 0 1-.14-.15 1.21 1.21 0 0 0-.41-.4 1.59 1.59 0 0 0-.81-.16 2.14 2.14 0 0 0-.45.05 1.35 1.35 0 0 0-.37.14.76.76 0 0 0-.24.23.54.54 0 0 0-.09.31.59.59 0 0 0 .08.34.69.69 0 0 0 .29.22 3.37 3.37 0 0 0 .54.18l.82.18a5.45 5.45 0 0 1 .93.28 1.87 1.87 0 0 1 .64.38 1.24 1.24 0 0 1 .37.51 1.67 1.67 0 0 1 .12.65 1.6 1.6 0 0 1-.18.75 1.72 1.72 0 0 1-.51.6 2.72 2.72 0 0 1-.82.39 3.69 3.69 0 0 1-1.09.14 3.83 3.83 0 0 1-1-.12 2.72 2.72 0 0 1-.81-.35 2 2 0 0 1-.58-.55 1.54 1.54 0 0 1-.24-.72.21.21 0 0 1 .07-.18.28.28 0 0 1 .17-.07h.63a.4.4 0 0 1 .24.06.42.42 0 0 1 .13.16 1.19 1.19 0 0 0 .16.23.83.83 0 0 0 .24.21 1.5 1.5 0 0 0 .38.15 2.26 2.26 0 0 0 .57.06 4.22 4.22 0 0 0 .52 0 1.49 1.49 0 0 0 .45-.14 1 1 0 0 0 .3-.23.51.51 0 0 0 .12-.35.41.41 0 0 0-.13-.32.91.91 0 0 0-.38-.22c-.17-.06-.38-.11-.63-.17s-.55-.12-.88-.21a4.21 4.21 0 0 1-.78-.25 1.66 1.66 0 0 1-.56-.37 1.25 1.25 0 0 1-.33-.51 2 2 0 0 1-.11-.69 1.6 1.6 0 0 1 .18-.75 1.74 1.74 0 0 1 .5-.58 2.42 2.42 0 0 1 .75-.39 3.14 3.14 0 0 1 .98-.18ZM129.08 377.57a.25.25 0 0 1 .17.08.21.21 0 0 1 .07.17v3.69a2.87 2.87 0 0 1-.16 1 2 2 0 0 1-.49.78 2.19 2.19 0 0 1-.81.5 3.43 3.43 0 0 1-1.12.17 3.49 3.49 0 0 1-1.13-.17 2.36 2.36 0 0 1-.81-.5 2.14 2.14 0 0 1-.48-.78 3.13 3.13 0 0 1-.15-1v-3.69a.21.21 0 0 1 .07-.17.23.23 0 0 1 .17-.08h.73a.25.25 0 0 1 .17.08.21.21 0 0 1 .07.17v3.64a1.67 1.67 0 0 0 .1.63 1.11 1.11 0 0 0 .28.43 1.07 1.07 0 0 0 .43.24 1.93 1.93 0 0 0 1.1 0 1 1 0 0 0 .72-.67 1.65 1.65 0 0 0 .11-.63v-3.64a.21.21 0 0 1 .07-.17.23.23 0 0 1 .17-.08ZM133.25 377.57a2.48 2.48 0 0 1 1.71.53 1.82 1.82 0 0 1 .58 1.44 2 2 0 0 1-.3 1.12 1.78 1.78 0 0 1-.89.69l1.24 2.23a.19.19 0 0 1 0 .1.2.2 0 0 1-.06.14.22.22 0 0 1-.14.05h-.76a.36.36 0 0 1-.27-.08l-.12-.16-1.18-2.1h-1.16v2.1a.23.23 0 0 1-.08.17.21.21 0 0 1-.17.07h-.73a.23.23 0 0 1-.17-.07.22.22 0 0 1-.07-.17v-5.81a.21.21 0 0 1 .07-.17.25.25 0 0 1 .17-.08Zm-1.35 2.84h1.3a1.61 1.61 0 0 0 .82-.18.74.74 0 0 0 .31-.69.71.71 0 0 0-.31-.67 1.73 1.73 0 0 0-.82-.17h-1.3ZM140.91 382.75a.23.23 0 0 1 .17.07.28.28 0 0 1 .07.17v.64a.26.26 0 0 1-.07.17.23.23 0 0 1-.17.07h-4a.23.23 0 0 1-.17-.07.22.22 0 0 1-.07-.17v-5.81a.21.21 0 0 1 .07-.17.25.25 0 0 1 .17-.08h3.88a.28.28 0 0 1 .25.25v.64a.25.25 0 0 1-.08.17.24.24 0 0 1-.17.07h-2.9v1.43h2.71a.23.23 0 0 1 .17.07.28.28 0 0 1 .07.17v.63a.26.26 0 0 1-.07.17.23.23 0 0 1-.17.07h-2.71v1.5Z" style="fill:#455a64"/><path d="M161.53 314.09a2.61 2.61 0 1 1-2.6-2.61 2.61 2.61 0 0 1 2.6 2.61Z" style="fill:#ba68c8"/><path d="M158.93 314.55H82.7a.46.46 0 0 1-.46-.46.45.45 0 0 1 .46-.46h76.23a.46.46 0 0 1 .46.46.47.47 0 0 1-.46.46Z" style="fill:#ba68c8"/><circle cx="57.49" cy="314.09" r="25.21" style="fill:#fff"/><path d="M57.49 339.85a25.77 25.77 0 1 1 25.76-25.76 25.8 25.8 0 0 1-25.76 25.76Zm0-50.42a24.66 24.66 0 1 0 24.65 24.66 24.68 24.68 0 0 0-24.65-24.66Z" style="fill:#ba68c8"/><path d="M61.55 321.47a12.9 12.9 0 1 1 9.12-3.78 12.82 12.82 0 0 1-9.12 3.78Zm0-24.86a12 12 0 1 0 8.45 3.51 11.9 11.9 0 0 0-8.45-3.51Z" style="fill:#455a64"/><path d="M61.55 318.29a9.72 9.72 0 1 1 6.87-2.84 9.71 9.71 0 0 1-6.87 2.84Zm0-18.51a8.8 8.8 0 1 0 6.22 2.58 8.75 8.75 0 0 0-6.22-2.58ZM43 329.6a2.49 2.49 0 0 1-1.77-.74 2.52 2.52 0 0 1 0-3.54l7.61-7.6a.46.46 0 0 1 .65 0l2.89 2.89a.48.48 0 0 1 .13.32.47.47 0 0 1-.13.33l-7.61 7.6a2.46 2.46 0 0 1-1.77.74Zm6.16-10.9-7.24 7.3a1.57 1.57 0 0 0 0 2.23 1.61 1.61 0 0 0 2.23 0l7.28-7.28Z" style="fill:#455a64"/><path d="M50.64 320a.46.46 0 0 1-.33-.78l2.13-2.22a.46.46 0 1 1 .65.65L51 319.82a.44.44 0 0 1-.36.18ZM103.62 307.19a.26.26 0 0 1 .09-.18.27.27 0 0 1 .17-.06h.73a.23.23 0 0 1 .17.07.19.19 0 0 1 .07.17 2.43 2.43 0 0 1-.18.74 2 2 0 0 1-.49.67 2.46 2.46 0 0 1-.81.49 3.53 3.53 0 0 1-1.2.18 3.09 3.09 0 0 1-1.1-.18 2.24 2.24 0 0 1-.81-.51 2.41 2.41 0 0 1-.52-.79 3.56 3.56 0 0 1-.22-1v-1.51a3.56 3.56 0 0 1 .22-1 2.41 2.41 0 0 1 .52-.79 2.24 2.24 0 0 1 .81-.51 3.09 3.09 0 0 1 1.1-.19 3.51 3.51 0 0 1 1.2.19 2.46 2.46 0 0 1 .81.49 2 2 0 0 1 .49.67 2.52 2.52 0 0 1 .18.73.21.21 0 0 1-.07.18.28.28 0 0 1-.17.07h-.73a.27.27 0 0 1-.17-.06.24.24 0 0 1-.1-.18 1 1 0 0 0-.13-.35 1 1 0 0 0-.27-.3 1.45 1.45 0 0 0-.43-.23 2.2 2.2 0 0 0-.61-.08 1.58 1.58 0 0 0-.61.11 1.22 1.22 0 0 0-.71.72 1.85 1.85 0 0 0-.11.53v1.51a1.92 1.92 0 0 0 .11.54 1.17 1.17 0 0 0 .27.42 1.25 1.25 0 0 0 .44.29 1.58 1.58 0 0 0 .61.11 1.87 1.87 0 0 0 .61-.09 1.4 1.4 0 0 0 .44-.22 1.08 1.08 0 0 0 .27-.3 1 1 0 0 0 .13-.35ZM105.69 305.23a3.34 3.34 0 0 1 .19-1 2.3 2.3 0 0 1 .49-.77 2.4 2.4 0 0 1 .81-.52 3.11 3.11 0 0 1 1.15-.2 3.34 3.34 0 0 1 1.15.19 2.28 2.28 0 0 1 .81.53 2.2 2.2 0 0 1 .49.77 2.92 2.92 0 0 1 .2 1V306.84a3.21 3.21 0 0 1-.19 1 2.25 2.25 0 0 1-.49.78 2.35 2.35 0 0 1-.82.52 3.76 3.76 0 0 1-2.3 0 2.4 2.4 0 0 1-.81-.52 2.25 2.25 0 0 1-.49-.78 3.21 3.21 0 0 1-.19-1v-1.23c-.01-.14-.01-.26 0-.38Zm4.07 0a1.44 1.44 0 0 0-.41-1 1.49 1.49 0 0 0-1-.35 1.46 1.46 0 0 0-1 .35 1.49 1.49 0 0 0-.42 1v1.52a1.32 1.32 0 0 0 1.43 1.35 1.49 1.49 0 0 0 1-.35 1.42 1.42 0 0 0 .41-1v-.76c0-.28.01-.48-.01-.71ZM116.25 309.18a.28.28 0 0 1-.23-.08l-.12-.12-2.52-3.75v3.71a.24.24 0 0 1-.24.24h-.73a.24.24 0 0 1-.24-.24v-5.81a.21.21 0 0 1 .07-.17.23.23 0 0 1 .17-.08h.59a.29.29 0 0 1 .23.09l.12.12 2.52 3.75v-3.71a.21.21 0 0 1 .13-.13.25.25 0 0 1 .17-.08h.73a.28.28 0 0 1 .25.25v5.81a.23.23 0 0 1-.08.17.21.21 0 0 1-.17.07ZM122.72 302.88a.25.25 0 0 1 .18.08.24.24 0 0 1 .07.17v.64a.28.28 0 0 1-.07.17.29.29 0 0 1-.18.07h-1.62v4.93a.24.24 0 0 1-.24.24h-.73a.23.23 0 0 1-.17-.07.22.22 0 0 1-.07-.17V304h-1.62a.26.26 0 0 1-.17-.07.23.23 0 0 1-.07-.17v-.64a.21.21 0 0 1 .07-.17.23.23 0 0 1 .17-.08ZM126.43 302.88a2.48 2.48 0 0 1 1.71.53 1.83 1.83 0 0 1 .59 1.44 2 2 0 0 1-.3 1.13 1.87 1.87 0 0 1-.89.68l1.24 2.23a.19.19 0 0 1 0 .1.2.2 0 0 1-.06.14.24.24 0 0 1-.14.05h-.77a.34.34 0 0 1-.26-.08.51.51 0 0 1-.12-.16l-1.18-2.1h-1.2v2.1a.24.24 0 0 1-.24.24h-.73a.24.24 0 0 1-.24-.24v-5.81a.21.21 0 0 1 .07-.17.23.23 0 0 1 .17-.08Zm-1.35 2.84h1.31a1.63 1.63 0 0 0 .82-.18.74.74 0 0 0 .3-.69.7.7 0 0 0-.3-.67 1.75 1.75 0 0 0-.82-.17h-1.31ZM129.68 305.23a3.34 3.34 0 0 1 .19-1 2.3 2.3 0 0 1 .49-.77 2.35 2.35 0 0 1 .82-.52 3 3 0 0 1 1.15-.2 3.28 3.28 0 0 1 1.14.19 2.28 2.28 0 0 1 .81.53 2.07 2.07 0 0 1 .49.77 2.92 2.92 0 0 1 .2 1V306.84a3.21 3.21 0 0 1-.19 1 2.25 2.25 0 0 1-.49.78 2.35 2.35 0 0 1-.82.52 3.73 3.73 0 0 1-2.29 0 2.35 2.35 0 0 1-.82-.52 2.25 2.25 0 0 1-.49-.78 3.21 3.21 0 0 1-.19-1v-1.23c0-.14-.01-.26 0-.38Zm4.08 0a1.49 1.49 0 0 0-.42-1 1.46 1.46 0 0 0-1-.35 1.49 1.49 0 0 0-1 .35 1.44 1.44 0 0 0-.41 1v1.52a1.42 1.42 0 0 0 .41 1 1.49 1.49 0 0 0 1 .35 1.32 1.32 0 0 0 1.43-1.35v-.76c0-.28 0-.48-.01-.71ZM140.35 308.06a.23.23 0 0 1 .17.07.28.28 0 0 1 .07.17v.64a.26.26 0 0 1-.07.17.23.23 0 0 1-.17.07h-3.95a.23.23 0 0 1-.17-.07.22.22 0 0 1-.07-.17v-5.81a.21.21 0 0 1 .07-.17.25.25 0 0 1 .17-.08h.73a.28.28 0 0 1 .25.25v4.93Z" style="fill:#455a64"/><path d="M161.53 239.45a2.61 2.61 0 1 1-2.6-2.61 2.6 2.6 0 0 1 2.6 2.61Z" style="fill:#ba68c8"/><path d="M158.93 239.91H82.7a.46.46 0 0 1-.46-.46.45.45 0 0 1 .46-.46h76.23a.46.46 0 0 1 .46.46.47.47 0 0 1-.46.46Z" style="fill:#ba68c8"/><circle cx="57.49" cy="239.45" r="25.21" style="fill:#fff"/><path d="M57.49 265.21a25.77 25.77 0 1 1 25.76-25.76 25.8 25.8 0 0 1-25.76 25.76Zm0-50.42a24.66 24.66 0 1 0 24.65 24.66 24.68 24.68 0 0 0-24.65-24.66Z" style="fill:#ba68c8"/><path d="M59.72 256.42H55a.46.46 0 0 1-.46-.41l-.48-4.65a12.84 12.84 0 0 1-3.06-1.28L47.34 253a.46.46 0 0 1-.62 0l-3.33-3.33a.47.47 0 0 1 0-.62l2.95-3.63a12.84 12.84 0 0 1-1.34-3.1l-4.65-.48a.47.47 0 0 1-.41-.46v-4.72a.46.46 0 0 1 .41-.46l4.65-.48a13.09 13.09 0 0 1 1.28-3.1L43.35 229a.47.47 0 0 1 0-.62l3.37-3.38a.47.47 0 0 1 .62 0l3.66 3a12.84 12.84 0 0 1 3.09-1.28l.48-4.65a.47.47 0 0 1 .46-.42h4.72a.47.47 0 0 1 .46.42l.48 4.65a12.84 12.84 0 0 1 3.06 1.28l3.63-3a.47.47 0 0 1 .62 0l3.33 3.34a.47.47 0 0 1 0 .62l-3 3.62a13.09 13.09 0 0 1 1.28 3.1l4.65.48a.46.46 0 0 1 .41.46v4.72a.47.47 0 0 1-.41.46l-4.65.48a12.84 12.84 0 0 1-1.28 3.09l3 3.63a.47.47 0 0 1 0 .62L68 253a.46.46 0 0 1-.62 0l-3.63-2.94a12.84 12.84 0 0 1-3.09 1.28l-.48 4.66a.46.46 0 0 1-.46.42Zm-4.3-.92h3.88l.47-4.56a.47.47 0 0 1 .35-.4 11.74 11.74 0 0 0 3.43-1.42.47.47 0 0 1 .54 0l3.55 2.89 2.75-2.75-2.89-3.56a.45.45 0 0 1 0-.53 11.58 11.58 0 0 0 1.42-3.43.47.47 0 0 1 .41-.35l4.55-.47v-3.88l-4.55-.47a.48.48 0 0 1-.41-.36 11.69 11.69 0 0 0-1.42-3.43.45.45 0 0 1 0-.53l2.89-3.55-2.75-2.7-3.55 2.89a.49.49 0 0 1-.54 0 11.61 11.61 0 0 0-3.43-1.43.45.45 0 0 1-.35-.4l-.47-4.55h-3.88l-.42 4.58a.45.45 0 0 1-.35.4 11.61 11.61 0 0 0-3.43 1.43.49.49 0 0 1-.54 0l-3.6-2.92-2.75 2.75 2.89 3.55a.45.45 0 0 1 0 .53 11.54 11.54 0 0 0-1.42 3.43.48.48 0 0 1-.41.36l-4.55.47V241l4.55.47a.47.47 0 0 1 .41.35 11.32 11.32 0 0 0 1.42 3.43.45.45 0 0 1 0 .53l-2.89 3.56 2.75 2.75 3.55-2.89a.47.47 0 0 1 .54 0 11.74 11.74 0 0 0 3.43 1.42.47.47 0 0 1 .35.4Zm18.88-14.12Z" style="fill:#455a64"/><path d="M57.36 247.29a8.27 8.27 0 1 1 8.27-8.29 8.28 8.28 0 0 1-8.27 8.29Zm0-15.62a7.35 7.35 0 1 0 7.35 7.33 7.36 7.36 0 0 0-7.35-7.33Z" style="fill:#455a64"/><circle cx="57.36" cy="239.02" r="3.61" style="fill:#455a64"/><path d="M97.66 233.37a.23.23 0 0 1 .17.07.28.28 0 0 1 .07.17v.64a.26.26 0 0 1-.07.17.23.23 0 0 1-.17.07h-4a.23.23 0 0 1-.17-.07.22.22 0 0 1-.07-.17v-5.81a.22.22 0 0 1 .07-.17.25.25 0 0 1 .17-.08h3.88a.21.21 0 0 1 .17.08.23.23 0 0 1 .08.17v.64a.25.25 0 0 1-.08.17.21.21 0 0 1-.17.07h-2.9v1.43h2.71a.23.23 0 0 1 .17.07.28.28 0 0 1 .07.17v.64a.24.24 0 0 1-.07.17.25.25 0 0 1-.17.08h-2.67v1.49ZM103.09 234.49a.33.33 0 0 1-.26-.09l-.12-.13-1.43-2-1.42 2-.12.13a.33.33 0 0 1-.26.09h-.75a.24.24 0 0 1-.18-.07.26.26 0 0 1-.07-.17.22.22 0 0 1 0-.1l2.06-2.87-2-2.74a.22.22 0 0 1 0-.1.26.26 0 0 1 .07-.17.25.25 0 0 1 .18-.08h.75a.37.37 0 0 1 .26.09l.12.14 1.36 1.9 1.35-1.9.12-.14a.37.37 0 0 1 .26-.09h.75a.21.21 0 0 1 .17.08.23.23 0 0 1 .08.17.22.22 0 0 1 0 .1l-2 2.78 2 2.83a.22.22 0 0 1 0 .1.22.22 0 0 1-.07.17.23.23 0 0 1-.17.07ZM108.57 232.5a.27.27 0 0 1 .1-.18.25.25 0 0 1 .16-.06h.73a.24.24 0 0 1 .18.07.19.19 0 0 1 .06.18 2 2 0 0 1-.18.73 1.81 1.81 0 0 1-.48.67 2.63 2.63 0 0 1-.82.49 3.53 3.53 0 0 1-1.2.18 3 3 0 0 1-1.09-.18 2.24 2.24 0 0 1-.81-.51 2.14 2.14 0 0 1-.52-.79 3 3 0 0 1-.22-1v-1.51a3 3 0 0 1 .22-1 2.14 2.14 0 0 1 .52-.79 2.24 2.24 0 0 1 .81-.51 3 3 0 0 1 1.09-.19 3.51 3.51 0 0 1 1.2.19 2.63 2.63 0 0 1 .82.49 1.81 1.81 0 0 1 .48.67 2 2 0 0 1 .18.73.19.19 0 0 1-.06.18.29.29 0 0 1-.18.07h-.73a.29.29 0 0 1-.17-.06.32.32 0 0 1-.1-.18 1 1 0 0 0-.12-.35 1.27 1.27 0 0 0-.27-.3 1.34 1.34 0 0 0-.43-.22 1.93 1.93 0 0 0-.62-.09 1.62 1.62 0 0 0-.61.11 1.35 1.35 0 0 0-.44.29 1.43 1.43 0 0 0-.27.43 1.85 1.85 0 0 0-.11.53v1.51a1.92 1.92 0 0 0 .11.54 1.51 1.51 0 0 0 .27.42 1.35 1.35 0 0 0 .44.29 1.62 1.62 0 0 0 .61.11 1.93 1.93 0 0 0 .62-.09 1.34 1.34 0 0 0 .43-.22 1.13 1.13 0 0 0 .28-.3 1.21 1.21 0 0 0 .12-.35ZM115.05 233.37a.22.22 0 0 1 .17.07.23.23 0 0 1 .07.17v.64a.24.24 0 0 1-.24.24h-4a.24.24 0 0 1-.24-.24v-5.81a.22.22 0 0 1 .07-.17.23.23 0 0 1 .17-.08H115a.23.23 0 0 1 .17.08.22.22 0 0 1 .07.17v.64a.23.23 0 0 1-.07.17.22.22 0 0 1-.17.07h-2.91v1.43h2.71a.22.22 0 0 1 .17.07.23.23 0 0 1 .07.17v.64a.21.21 0 0 1-.07.17.23.23 0 0 1-.17.08h-2.71v1.49ZM120.23 232.5a.26.26 0 0 1 .09-.18.27.27 0 0 1 .17-.06h.73a.23.23 0 0 1 .17.07.2.2 0 0 1 .07.18 2.19 2.19 0 0 1-.19.73 1.81 1.81 0 0 1-.48.67 2.52 2.52 0 0 1-.82.49 3.47 3.47 0 0 1-1.19.18 3.09 3.09 0 0 1-1.1-.18 2.24 2.24 0 0 1-.81-.51 2.27 2.27 0 0 1-.52-.79 3.56 3.56 0 0 1-.22-1v-1.51a3.56 3.56 0 0 1 .22-1 2.27 2.27 0 0 1 .52-.79 2.24 2.24 0 0 1 .81-.51 3.09 3.09 0 0 1 1.1-.19 3.45 3.45 0 0 1 1.19.19 2.52 2.52 0 0 1 .82.49 1.81 1.81 0 0 1 .48.67 2.26 2.26 0 0 1 .19.73.2.2 0 0 1-.07.18.28.28 0 0 1-.17.07h-.73a.27.27 0 0 1-.17-.06.24.24 0 0 1-.1-.18 1 1 0 0 0-.13-.35 1 1 0 0 0-.27-.3 1.24 1.24 0 0 0-.43-.22 1.87 1.87 0 0 0-.61-.09 1.58 1.58 0 0 0-.61.11 1.25 1.25 0 0 0-.44.29 1.12 1.12 0 0 0-.27.43 1.85 1.85 0 0 0-.11.53v1.51a1.92 1.92 0 0 0 .11.54 1.17 1.17 0 0 0 .27.42 1.25 1.25 0 0 0 .44.29 1.58 1.58 0 0 0 .61.11 1.87 1.87 0 0 0 .61-.09 1.4 1.4 0 0 0 .44-.22 1.27 1.27 0 0 0 .27-.3 1 1 0 0 0 .13-.35ZM127.38 228.19a.21.21 0 0 1 .17.08.23.23 0 0 1 .08.17v3.69a2.93 2.93 0 0 1-.17 1 2.18 2.18 0 0 1-.48.77 2.22 2.22 0 0 1-.81.5 3.28 3.28 0 0 1-1.13.17 3.24 3.24 0 0 1-1.13-.17 2.1 2.1 0 0 1-.8-.5 1.93 1.93 0 0 1-.48-.77 2.93 2.93 0 0 1-.16-1v-3.69a.22.22 0 0 1 .07-.17.23.23 0 0 1 .17-.08h.73a.23.23 0 0 1 .17.08.22.22 0 0 1 .07.17v3.64a1.89 1.89 0 0 0 .1.63 1.11 1.11 0 0 0 .28.43 1.07 1.07 0 0 0 .43.24 1.93 1.93 0 0 0 1.1 0 1 1 0 0 0 .44-.24 1.13 1.13 0 0 0 .29-.43 1.89 1.89 0 0 0 .1-.63v-3.64a.22.22 0 0 1 .07-.17.25.25 0 0 1 .17-.08ZM133.18 228.19a.25.25 0 0 1 .17.08.22.22 0 0 1 .07.17v.64a.24.24 0 0 1-.24.24h-1.62v4.93a.26.26 0 0 1-.07.17.24.24 0 0 1-.18.07h-.72a.24.24 0 0 1-.18-.07.26.26 0 0 1-.07-.17v-4.93h-1.62a.24.24 0 0 1-.24-.24v-.64a.22.22 0 0 1 .07-.17.25.25 0 0 1 .17-.08ZM134.56 234.49a.23.23 0 0 1-.17-.07.22.22 0 0 1-.07-.17v-5.81a.22.22 0 0 1 .07-.17.25.25 0 0 1 .17-.08h.73a.21.21 0 0 1 .17.08.23.23 0 0 1 .08.17v5.81a.23.23 0 0 1-.08.17.21.21 0 0 1-.17.07ZM136.72 230.54a3.35 3.35 0 0 1 .2-.95 2.15 2.15 0 0 1 .49-.77 2.22 2.22 0 0 1 .81-.52 3.07 3.07 0 0 1 1.15-.2 3.24 3.24 0 0 1 1.14.19 2.12 2.12 0 0 1 .81.53 2.33 2.33 0 0 1 .5.77 3.21 3.21 0 0 1 .2.95V232.15a3.21 3.21 0 0 1-.2.95 2.11 2.11 0 0 1-.49.78 2.31 2.31 0 0 1-.81.52 3.35 3.35 0 0 1-1.15.18 3.31 3.31 0 0 1-1.15-.18 2.22 2.22 0 0 1-.81-.52 2.11 2.11 0 0 1-.49-.78 3.21 3.21 0 0 1-.2-.95v-1.23c-.01-.14 0-.26 0-.38Zm4.08.05a1.36 1.36 0 0 0-.42-1 1.6 1.6 0 0 0-2 0 1.36 1.36 0 0 0-.42 1v1.52a1.38 1.38 0 0 0 .42 1 1.63 1.63 0 0 0 2 0 1.38 1.38 0 0 0 .42-1v-.76c0-.28.01-.53 0-.76ZM147.29 234.49a.32.32 0 0 1-.24-.08l-.11-.12-2.52-3.75v3.71a.26.26 0 0 1-.07.17.23.23 0 0 1-.17.07h-.73a.21.21 0 0 1-.17-.07.23.23 0 0 1-.08-.17v-5.81a.23.23 0 0 1 .08-.17.21.21 0 0 1 .17-.08h.63a.29.29 0 0 1 .23.09l.12.12 2.52 3.75v-3.71a.22.22 0 0 1 .07-.17.23.23 0 0 1 .17-.08h.73a.23.23 0 0 1 .17.08.22.22 0 0 1 .07.17v5.81a.24.24 0 0 1-.24.24Z" style="fill:#455a64"/><path d="M161.53 164.81a2.61 2.61 0 1 1-2.6-2.6 2.6 2.6 0 0 1 2.6 2.6Z" style="fill:#ba68c8"/><path d="M158.93 165.27H82.7a.45.45 0 0 1-.46-.46.46.46 0 0 1 .46-.46h76.23a.47.47 0 0 1 .46.46.46.46 0 0 1-.46.46Z" style="fill:#ba68c8"/><circle cx="57.49" cy="164.81" r="25.21" transform="rotate(-80.78 57.49 164.809)" style="fill:#fff"/><path d="M57.49 190.58a25.77 25.77 0 1 1 25.76-25.77 25.8 25.8 0 0 1-25.76 25.77Zm0-50.43a24.66 24.66 0 1 0 24.65 24.66 24.68 24.68 0 0 0-24.65-24.66Z" style="fill:#ba68c8"/><path d="M54.93 175.79a.46.46 0 0 1-.33-.13L45 166.1a.47.47 0 0 1 0-.66l15.72-15.72a.46.46 0 0 1 .65 0l9.63 9.56a.47.47 0 0 1 0 .66l-15.75 15.72a.44.44 0 0 1-.32.13Zm-8.91-10 8.91 8.91L70 159.61l-8.91-8.91Z" style="fill:#455a64"/><path d="M41.82 179.34a.51.51 0 0 1-.33-.13.47.47 0 0 1-.12-.45l3.55-13.11a.46.46 0 1 1 .89.24l-3.34 12.34 12.34-3.34a.45.45 0 0 1 .56.32.46.46 0 0 1-.32.57l-13.11 3.55Z" style="fill:#455a64"/><path style="fill:#455a64" d="m42.85 175.07 2.78 2.78-3.81 1.03 1.03-3.81zM51.74 172.61a.47.47 0 0 1-.33-.14.46.46 0 0 1 0-.65l15.73-15.72a.46.46 0 0 1 .65.65l-15.72 15.72a.47.47 0 0 1-.33.14ZM48.55 169.42a.45.45 0 0 1-.32-.14.46.46 0 0 1 0-.65L64 152.91a.46.46 0 0 1 .65.65l-15.77 15.72a.47.47 0 0 1-.33.14Z"/><path d="M70.65 160.07a.44.44 0 0 1-.32-.13.46.46 0 0 1 0-.66l.14-.13a6.3 6.3 0 1 0-8.91-8.91l-.14.13a.45.45 0 0 1-.65 0 .46.46 0 0 1 0-.65l.14-.14a7.22 7.22 0 1 1 10.2 10.22l-.13.14a.46.46 0 0 1-.33.13Z" style="fill:#455a64"/><path transform="rotate(45 64.798 155.89)" style="fill:#455a64" d="M58.04 154.39h13.52v3.02H58.04z"/><path d="M101.35 153.51a2.53 2.53 0 0 1 1.65.49 1.86 1.86 0 0 1 .6 1.5 1.88 1.88 0 0 1-.6 1.5 2.48 2.48 0 0 1-1.69.53h-1.4v2a.21.21 0 0 1-.07.17.25.25 0 0 1-.17.08h-.73a.28.28 0 0 1-.25-.25v-5.81a.23.23 0 0 1 .08-.17.21.21 0 0 1 .17-.07Zm-1.44 2.92h1.39a1.48 1.48 0 0 0 .82-.2.78.78 0 0 0 .31-.71.76.76 0 0 0-.31-.7 1.58 1.58 0 0 0-.82-.19h-1.39ZM108.81 158.68a.26.26 0 0 1 .17.07.23.23 0 0 1 .07.17v.64a.21.21 0 0 1-.07.17.23.23 0 0 1-.17.08h-3.94a.23.23 0 0 1-.17-.08.21.21 0 0 1-.07-.17v-5.81a.24.24 0 0 1 .24-.24h.73a.23.23 0 0 1 .17.07.22.22 0 0 1 .07.17v4.93ZM112.88 153.51a.27.27 0 0 1 .21.07.7.7 0 0 1 .13.23l2.21 5.69v.06a.21.21 0 0 1-.07.17.23.23 0 0 1-.17.08h-.65a.34.34 0 0 1-.25-.08.44.44 0 0 1-.1-.15l-.39-1H111l-.39 1a.33.33 0 0 1-.1.15.32.32 0 0 1-.25.08h-.64a.25.25 0 0 1-.18-.08.24.24 0 0 1-.07-.17s0 0 0-.06l2.21-5.69a.55.55 0 0 1 .12-.23.29.29 0 0 1 .22-.07Zm.49 4-1-2.57-1 2.57ZM120.34 159.81a.36.36 0 0 1-.24-.08l-.11-.13-2.52-3.75v3.71a.24.24 0 0 1-.07.17.25.25 0 0 1-.18.08h-.72a.28.28 0 0 1-.25-.25v-5.81a.23.23 0 0 1 .08-.17.21.21 0 0 1 .17-.07h.63a.28.28 0 0 1 .23.08l.12.12 2.52 3.75v-3.71a.24.24 0 0 1 .24-.24h.76a.24.24 0 0 1 .24.24v5.81a.21.21 0 0 1-.07.17.23.23 0 0 1-.17.08ZM126.7 159.81a.32.32 0 0 1-.23-.08l-.12-.13-2.52-3.75v3.71a.21.21 0 0 1-.07.17.25.25 0 0 1-.17.08h-.73a.23.23 0 0 1-.17-.08.21.21 0 0 1-.07-.17v-5.81a.24.24 0 0 1 .24-.24h.63a.28.28 0 0 1 .23.08.66.66 0 0 1 .12.12l2.52 3.75v-3.71a.22.22 0 0 1 .07-.17.23.23 0 0 1 .17-.07h.73a.21.21 0 0 1 .17.07.23.23 0 0 1 .08.17v5.81a.28.28 0 0 1-.25.25ZM129.22 159.81a.25.25 0 0 1-.17-.08.21.21 0 0 1-.07-.17v-5.81a.22.22 0 0 1 .07-.17.23.23 0 0 1 .17-.07h.78a.24.24 0 0 1 .24.24v5.81a.21.21 0 0 1-.07.17.23.23 0 0 1-.17.08ZM135.68 159.81a.32.32 0 0 1-.23-.08l-.12-.13-2.52-3.75v3.71a.21.21 0 0 1-.07.17.23.23 0 0 1-.17.08h-.73a.23.23 0 0 1-.17-.08.21.21 0 0 1-.07-.17v-5.81a.24.24 0 0 1 .24-.24h.63a.28.28 0 0 1 .23.08.66.66 0 0 1 .12.12l2.52 3.75v-3.71a.26.26 0 0 1 .07-.17.24.24 0 0 1 .18-.07h.72a.21.21 0 0 1 .17.07.23.23 0 0 1 .08.17v5.81a.28.28 0 0 1-.25.25ZM137.74 155.84a2.86 2.86 0 0 1 .19-1 2 2 0 0 1 .53-.76 2.19 2.19 0 0 1 .84-.5 3.68 3.68 0 0 1 1.16-.17 3.39 3.39 0 0 1 1.29.2 2.59 2.59 0 0 1 .81.48 1.61 1.61 0 0 1 .43.59 2.2 2.2 0 0 1 .14.51.21.21 0 0 1-.07.17.24.24 0 0 1-.18.07h-.72a.25.25 0 0 1-.16-.05.41.41 0 0 1-.09-.1 1 1 0 0 0-.09-.16 1 1 0 0 0-.25-.25 1.34 1.34 0 0 0-.43-.23 1.9 1.9 0 0 0-.68-.11 1.52 1.52 0 0 0-1.08.37 1.32 1.32 0 0 0-.43 1v1.47a1.39 1.39 0 0 0 .43 1.08 1.61 1.61 0 0 0 1.08.34 2.45 2.45 0 0 0 .62-.07 1.53 1.53 0 0 0 .48-.23 1.13 1.13 0 0 0 .31-.43 1.61 1.61 0 0 0 .11-.65v-.08h-1.09a.21.21 0 0 1-.17-.07.23.23 0 0 1-.08-.17v-.64a.23.23 0 0 1 .08-.17.21.21 0 0 1 .17-.07H143a.23.23 0 0 1 .17.07.22.22 0 0 1 .07.17v1a3 3 0 0 1-.17 1 2.18 2.18 0 0 1-.52.78 2.25 2.25 0 0 1-.85.51 4 4 0 0 1-2.39 0 2.24 2.24 0 0 1-.83-.51 2.12 2.12 0 0 1-.51-.78 2.86 2.86 0 0 1-.19-1v-1.22a.855.855 0 0 1-.04-.39Z" style="fill:#455a64"/><path d="M161.53 90.17a2.61 2.61 0 1 1-2.6-2.6 2.61 2.61 0 0 1 2.6 2.6Z" style="fill:#ba68c8"/><path d="M158.93 90.63H82.7a.45.45 0 0 1-.46-.46.46.46 0 0 1 .46-.46h76.23a.47.47 0 0 1 .46.46.46.46 0 0 1-.46.46Z" style="fill:#ba68c8"/><circle cx="57.49" cy="90.16" r="25.21" style="fill:#fff"/><path d="M57.49 115.92a25.77 25.77 0 1 1 25.76-25.76 25.79 25.79 0 0 1-25.76 25.76Zm0-50.42a24.66 24.66 0 1 0 24.65 24.66A24.68 24.68 0 0 0 57.49 65.5Z" style="fill:#ba68c8"/><path d="m62.41 102.13-10.1-.07v-.46c0-1.46-1.21-2.66-2.75-4.18-2.48-2.42-5.89-5.8-5.84-12.42a13.69 13.69 0 0 1 4.11-9.7 13.49 13.49 0 0 1 9.76-4 13.78 13.78 0 0 1 13.66 13.87c0 6.65-3.5 10-6 12.37-1.56 1.49-2.8 2.68-2.81 4.13Zm-9.2-1 8.31.06c.23-1.62 1.55-2.88 3.07-4.33 2.53-2.43 5.69-5.44 5.74-11.71A12.84 12.84 0 0 0 44.65 85c0 6.26 3.06 9.33 5.56 11.79 1.49 1.44 2.79 2.73 3 4.35Z" style="fill:#455a64"/><path d="M59.62 101.93a.34.34 0 0 1-.34-.34 41.41 41.41 0 0 1 1.27-9.7 18.77 18.77 0 0 1 .86-2.68l.09-.21-.23-.08a7.61 7.61 0 0 1-1.43-.71 10 10 0 0 1-2.2-1.88l-.18-.21-.18.21a10 10 0 0 1-2.23 1.84 7.27 7.27 0 0 1-1.44.69l-.23.08.09.23a22.06 22.06 0 0 1 .82 2.69 41.86 41.86 0 0 1 1.12 9.72.36.36 0 0 1-.38.33.33.33 0 0 1-.31-.35 42 42 0 0 0-1.1-9.56 19.93 19.93 0 0 0-.85-2.75l-.07-.17h-.18a4.64 4.64 0 0 1-.63 0 3.18 3.18 0 0 1-2.39-.94 1.62 1.62 0 0 1-.22-2.09 1.33 1.33 0 0 1 1.07-.59 1.24 1.24 0 0 1 .27 0c.83.17 1.66 1 2.39 2.54l.09.19.2-.07a7 7 0 0 0 1.4-.65 9 9 0 0 0 2.23-1.9l.12-.14-.1-.14a4.07 4.07 0 0 1-.79-3.07 1.39 1.39 0 0 1 2.66 0A4.1 4.1 0 0 1 58 85.4l-.1.14.11.14a9.22 9.22 0 0 0 2.21 1.93 7.12 7.12 0 0 0 1.39.68l.2.06.09-.18c.74-1.46 1.6-2.35 2.42-2.51h.25a1.34 1.34 0 0 1 1.09.6 1.61 1.61 0 0 1-.25 2.09 3.18 3.18 0 0 1-2.35.91 4.08 4.08 0 0 1-.68-.06h-.18l-.07.17a18.59 18.59 0 0 0-.9 2.73 40.62 40.62 0 0 0-1.23 9.48.35.35 0 0 1-.34.35Zm4.81-15.59c-.53.1-1.18.77-1.78 1.85l-.18.32h.6a2.47 2.47 0 0 0 1.82-.69.94.94 0 0 0 .19-1.22.64.64 0 0 0-.52-.32Zm-14.07-.13a.67.67 0 0 0-.53.32 1 1 0 0 0 .17 1.22 2.52 2.52 0 0 0 1.86.71h.51l-.17-.33c-.54-1.13-1.2-1.79-1.71-1.9ZM57.48 82a.62.62 0 0 0-.66.48 3 3 0 0 0 .44 2.08l.21.39.21-.38a3 3 0 0 0 .48-2.08.64.64 0 0 0-.67-.49ZM57.45 109a3.68 3.68 0 0 1-3.68-3.68v-.46h7.37v.46a3.69 3.69 0 0 1-3.69 3.68Zm-2.72-3.22a2.76 2.76 0 0 0 5.45 0Z" style="fill:#455a64"/><path d="M60.55 105.79h-6.38a1.86 1.86 0 0 1-1.86-1.86v-2.79h10.1v2.79a1.86 1.86 0 0 1-1.86 1.86Zm-7.32-3.73v1.87a1 1 0 0 0 .94.94h6.38a1 1 0 0 0 .94-.94v-1.87ZM98.84 85.12a.23.23 0 0 1-.17-.08.21.21 0 0 1-.07-.17v-5.81a.24.24 0 0 1 .24-.24h.73a.23.23 0 0 1 .17.07.22.22 0 0 1 .07.17v5.81a.21.21 0 0 1-.07.17.25.25 0 0 1-.17.08ZM105.3 85.12a.32.32 0 0 1-.23-.08l-.12-.13-2.52-3.74v3.7a.21.21 0 0 1-.07.17.25.25 0 0 1-.17.08h-.73a.23.23 0 0 1-.17-.08.21.21 0 0 1-.07-.17v-5.81a.24.24 0 0 1 .24-.24h.63a.28.28 0 0 1 .23.08.66.66 0 0 1 .12.12l2.56 3.75v-3.71a.22.22 0 0 1 .07-.17.23.23 0 0 1 .17-.07h.73a.24.24 0 0 1 .24.24v5.81a.21.21 0 0 1-.07.17.23.23 0 0 1-.17.08ZM107.82 85.12a.23.23 0 0 1-.17-.08.21.21 0 0 1-.07-.17v-5.81a.24.24 0 0 1 .24-.24h.73a.24.24 0 0 1 .24.24v5.81a.21.21 0 0 1-.07.17.23.23 0 0 1-.17.08ZM114.39 78.82a.24.24 0 0 1 .24.24v.64a.24.24 0 0 1-.24.24h-1.62v4.93a.21.21 0 0 1-.07.17.25.25 0 0 1-.17.08h-.73a.23.23 0 0 1-.17-.08.21.21 0 0 1-.08-.17v-4.93h-1.61a.24.24 0 0 1-.18-.07.26.26 0 0 1-.07-.17v-.64a.26.26 0 0 1 .07-.17.24.24 0 0 1 .18-.07ZM115.78 85.12a.28.28 0 0 1-.25-.25v-5.81a.23.23 0 0 1 .08-.17.21.21 0 0 1 .17-.07h.73a.23.23 0 0 1 .17.07.26.26 0 0 1 .07.17v5.81a.24.24 0 0 1-.07.17.25.25 0 0 1-.17.08ZM121.11 78.82a.29.29 0 0 1 .22.07.7.7 0 0 1 .13.23l2.2 5.69a.13.13 0 0 1 0 .06.21.21 0 0 1-.07.17.25.25 0 0 1-.17.08h-.65a.32.32 0 0 1-.25-.08.44.44 0 0 1-.1-.15l-.39-1h-2.83l-.39 1a.44.44 0 0 1-.1.15.34.34 0 0 1-.25.08h-.65a.23.23 0 0 1-.17-.08.21.21 0 0 1-.07-.17.13.13 0 0 1 0-.06l2.2-5.69a.7.7 0 0 1 .13-.23.28.28 0 0 1 .21-.07Zm.5 4-1-2.57-1 2.57ZM128 78.82a.21.21 0 0 1 .17.07.23.23 0 0 1 .08.17v.64a.23.23 0 0 1-.08.17.21.21 0 0 1-.17.07h-1.62v4.93a.21.21 0 0 1-.07.17.23.23 0 0 1-.17.08h-.73a.25.25 0 0 1-.17-.08.21.21 0 0 1-.07-.17v-4.93h-1.62a.22.22 0 0 1-.17-.07.23.23 0 0 1-.08-.17v-.64a.23.23 0 0 1 .08-.17.22.22 0 0 1 .17-.07ZM129.43 85.12a.23.23 0 0 1-.17-.08.21.21 0 0 1-.07-.17v-5.81a.24.24 0 0 1 .24-.24h.73a.23.23 0 0 1 .17.07.22.22 0 0 1 .07.17v5.81a.21.21 0 0 1-.07.17.25.25 0 0 1-.17.08ZM131.59 81.17a3.21 3.21 0 0 1 .19-1 2.25 2.25 0 0 1 .49-.78 2.4 2.4 0 0 1 .81-.52 3.58 3.58 0 0 1 2.3 0 2.26 2.26 0 0 1 .81.52 2.3 2.3 0 0 1 .49.77 3 3 0 0 1 .2 1V82.77a3.34 3.34 0 0 1-.19 1 2.3 2.3 0 0 1-.49.77 2.35 2.35 0 0 1-.82.52 3.58 3.58 0 0 1-2.3 0 2.4 2.4 0 0 1-.81-.52 2.3 2.3 0 0 1-.49-.77 3.34 3.34 0 0 1-.19-1v-1.24c0-.14-.01-.25 0-.36Zm4.08 0a1.34 1.34 0 0 0-1.44-1.36 1.42 1.42 0 0 0-1 .36 1.45 1.45 0 0 0-.42 1v1.52a1.32 1.32 0 0 0 1.43 1.35 1.49 1.49 0 0 0 1-.35 1.45 1.45 0 0 0 .42-1v-.76c0-.28.02-.49.01-.72ZM142.15 85.12a.32.32 0 0 1-.23-.08l-.12-.13-2.52-3.74v3.7a.21.21 0 0 1-.07.17.23.23 0 0 1-.17.08h-.73a.25.25 0 0 1-.17-.08.21.21 0 0 1-.07-.17v-5.81a.22.22 0 0 1 .07-.17.23.23 0 0 1 .17-.07h.63a.32.32 0 0 1 .24.08l.11.12 2.52 3.75v-3.71a.26.26 0 0 1 .07-.17.24.24 0 0 1 .18-.07h.72a.24.24 0 0 1 .18.07.26.26 0 0 1 .07.17v5.81a.24.24 0 0 1-.03.13.25.25 0 0 1-.18.08Z" style="fill:#455a64"/><path d="M451.27 392.87c-1-13.31.54-23.51-.6-44.29-.1-5.33-.3-11-.66-16.1-1.23-17.05-3.92-22.88-4.17-26.17 0 0-.46-26.54-1.61-63.85-.53-17.56-5.74-22.87-9.9-32.19h-51.48c-5.53 23-5.1 73.13-4.94 96.82.09 12.09 5.08 76.71 5.18 78.2.36 5.27-.12 7.35-2.23 9.57-4.44 4.64-10.86 9.06-16.42 13.11.81 2.08 7.49 2 10.8.42a85.32 85.32 0 0 0 12.33-7.67c4.56-3.3 10.39-6 10.47-11a4.94 4.94 0 0 1 .15-.9c.09-2.93 7.09-46.16 7.67-56.19.5-8.62-.58-23.26-.58-23.26l5.7-36.54s3.52 21.6 7.07 36.34c2.89 12 7.67 32.49 10.92 47.26 3.13 17 7.72 29.13 8.52 37.65.24 2 2.6 22 3.57 26.56s11.18 4.7 11.84-3.17c.43-5.2-1.45-22.1-1.63-24.6Z" style="fill:#b16668"/><path d="M355 413.28c-.28 0-.74 3 .78 4.34 1.75 1.51 6.92 4 13.8 3.22s10.62-2.83 13.4-5 6.66-5.35 9.77-6c2.9-.6 6-1.84 7-2.7s.84-4.74.84-4.74Z" style="fill:#263238"/><path d="M398.33 387.44s.52 0 .69.92c.2 1.07.39 4.17.83 5.93a30.71 30.71 0 0 1 .57 9.42c-.4 2-5.12 3.31-8.14 4.39a38.56 38.56 0 0 0-9.81 5.91c-3.25 2.56-10.07 5.1-14.55 5.12-6.83 0-11.24-1.84-12.58-4.25-1.66-3-.31-4.69 7.58-8.16 1.49-.66 6.75-3.62 8.54-4.7a40.7 40.7 0 0 0 5.39-3.82 31 31 0 0 0 2.42-2.3 10.77 10.77 0 0 0 2-2.46c.09-.2.15-.43.23-.64a11.5 11.5 0 0 0 .54-1.79c.13-.64.22-1.57.84-1.94a5.29 5.29 0 0 1 2.82-.3 22 22 0 0 1 3 .45c1.15.27 2.49.38 3.16 1.45a5.46 5.46 0 0 1 .62 2.78v1.35c0 .19-.09.53.19.46s.56-.74.66-1c.22-.5.37-1 .61-1.52a7.94 7.94 0 0 1 1-1.62 7.6 7.6 0 0 1 1.25-1.22 12.39 12.39 0 0 0 1.36-.84 3 3 0 0 0 .78-1.62Z" style="fill:#37474f"/><path d="M361.65 407.29c9.88.77 12.93 6.77 13.31 10.47a24 24 0 0 1-7 1.37c-6.83 0-11.52-1.84-12.86-4.25-1.61-2.81-.5-5.06 6.55-7.59Z" style="fill:#fafafa"/><path d="M376.48 407.55a.5.5 0 0 0 .3-.11.46.46 0 0 0 .08-.66 11.8 11.8 0 0 0-8.91-3.54.47.47 0 1 0 .09.94 10.93 10.93 0 0 1 8.07 3.19.53.53 0 0 0 .37.18ZM380.77 405.17a.5.5 0 0 0 .3-.11.47.47 0 0 0 .08-.66 11.76 11.76 0 0 0-8.91-3.54.47.47 0 1 0 .09.94 10.85 10.85 0 0 1 8.06 3.19.55.55 0 0 0 .38.18ZM384.74 402.44a.45.45 0 0 0 .31-.11.46.46 0 0 0 .08-.66 11.83 11.83 0 0 0-8.91-3.54.49.49 0 0 0-.44.52.48.48 0 0 0 .53.42 10.91 10.91 0 0 1 8.06 3.19.47.47 0 0 0 .37.18ZM388.64 399.71a.47.47 0 0 0 .3-.1.46.46 0 0 0 .06-.61c-1.87-2.36-6.14-3.94-9.73-3.6a.47.47 0 1 0 .09.94c3.24-.31 7.22 1.15 8.88 3.24a.46.46 0 0 0 .4.13Z" style="fill:#f0f0f0"/><path d="M437.85 424.24c.28 4.56 1 7.58 2.66 10.25s4.78 3.51 7.94 2.73 7.22-2.88 8.12-6.81 1.44-6.62.72-10.85Z" style="fill:#263238"/><path d="M451.16 391.24c1.3.1 1.68 6.22 2.44 12.34.8 6.57 2.81 9.29 3.53 14.67.82 6.15-.22 8.9-2.43 12.62s-10 7.37-13.87 2c-3.14-4.34-3.27-9.16-3-15.3a136.2 136.2 0 0 0-.42-15.57c-.26-4.6-1.3-9.25-.17-9.76.09.68.17 1.54.26 2.2a11.31 11.31 0 0 0 .42 2.46c.14.34.43.7.55.14a3.63 3.63 0 0 0 0-1.14c-.19-1.7.68-1.84 1.15-2a59 59 0 0 1 6.05-.84c1-.06 4.43-.21 4.88.34a3.76 3.76 0 0 1 .44 1.78c.11.93.33 1.61.36 1.32.06-.67-.07-2.39-.09-2.81s-.08-.94-.09-1.34.01-.72-.01-1.11Z" style="fill:#37474f"/><path d="M457.49 421.82a15 15 0 0 1-2.44 9.34c-2.2 3.72-10.65 7.38-14.5 2.06-1.92-2.65-2.43-5.79-2.69-9 2.3-4.09 15.99-5.9 19.63-2.4Z" style="fill:#fafafa"/><path d="M440.7 417.55a.43.43 0 0 0 .16-.05c.05 0 6.09-2.46 12-1.13a.49.49 0 0 0 .58-.35.48.48 0 0 0-.37-.57c-6.21-1.4-12.36 1.1-12.59 1.2a.46.46 0 0 0-.22.63.49.49 0 0 0 .44.27ZM452.53 411.79a.5.5 0 0 0 .41-.32.47.47 0 0 0-.31-.6c-5.84-1.93-12.33 1-12.57 1.09a.46.46 0 0 0-.2.64.5.5 0 0 0 .65.2c.05 0 6.37-2.84 11.81-1a.51.51 0 0 0 .21-.01ZM452.32 407.46a.49.49 0 0 0 .41-.31.47.47 0 0 0-.3-.6c-6.42-2.25-12.58.92-12.81 1.06a.45.45 0 0 0-.16.64.48.48 0 0 0 .66.16c.05 0 6-3.06 12-1a.5.5 0 0 0 .2.05Z" style="fill:#f0f0f0"/><path d="M452 403.21a.46.46 0 0 0 .4-.31.47.47 0 0 0-.28-.61c-6-2.2-12.65 1-12.9 1.19a.46.46 0 0 0-.17.65.47.47 0 0 0 .65.17c.06 0 6.49-3.17 12.08-1.12a.83.83 0 0 0 .22.03Z" style="fill:#ebebeb"/><path d="M443.24 210.42c.8 14.8 2.62 19 3.21 50s.5 39.73.63 43.47 2.35 10.43 4.31 28.87-.36 40.4-.36 40.4-1.35 3-8.57 3.59c-6.66.59-10-1.85-10-1.85s-9.13-35.9-11.65-47-9.81-47.61-9.81-47.61l-4.35 29.61s2 10.17 0 26.33S401 369 401 369a30.85 30.85 0 0 1-10.23 1.63 17.49 17.49 0 0 1-9-2.29s-5.66-48.1-5.66-66.42 1.46-65 2.6-91.25Z" style="fill:#455a64"/><path d="M445.41 318.22c-.24-1.06-.46-2.07-.67-3-1.83-8.57-1.81-19.78-1.78-34v-13.44c-.16-18.48-1.62-39.18-11.2-52.53l-.77.53c6.44 9 9.15 21.39 10.27 34.2-9.5-1.23-11.58-10.39-14.41-23-.39-1.73-.79-3.51-1.23-5.34l-.91.21c.43 1.82.83 3.61 1.22 5.33 2.82 12.59 5.07 22.56 15.41 23.77.46 5.64.63 11.34.68 16.85v13.43c0 14.25-.05 25.5 1.81 34.17.21 1 .43 2 .67 3 2.46 11.09 6.15 27.73 4.31 56.69a8 8 0 0 0 1-.62c1.72-28.67-1.95-45.2-4.4-56.25Zm-59.89-81.16c1.32 6.09 11.29 11.23 15.81 12.29l1.15 6.2c-.22 3.3-.47 6.77-.72 10.34C400.39 285.6 399 306 400 310.58c2.72 12.11 1.92 19.78.46 33.72-.15 1.42-.31 2.91-.47 4.47-.82 8.1-1.73 16-2.34 21.12l1-.22c.6-5.1 1.49-12.88 2.3-20.81.16-1.56.32-3.05.47-4.47 1.47-14 2.28-21.76-.48-34-1-4.46.48-25.7 1.79-44.43l.47-6.66 4 21.85-.57 28.76 4.37-29.62-6-35.24s-12.51-.87-19.48-7.99Z" style="fill:#37474f"/><path d="M389 145.26c-5.87 1-11.63 3.94-16.08 12.79-3.66 7.28-4.49 13.6-10.26 25.1l-24.1-.39 4.29 15.39s14.37 2.56 21.81 3.15c5.56.44 7.8-1.05 11.17-5.58 4.42-5.92 10.58-19.82 10.58-19.82Z" style="fill:#ba68c8"/><path d="M422.49 142.33c9.75 2.18 12.68 3.13 17.29 4.2 0 0 8.58 24.31 4.45 41.25-1 3.9.2 32.58.92 42.29 0 0-16.27 9.21-43.55 6.42-21.41-2.19-24-10.16-24-10.16s.52-29.26 1.5-45.07c1.29-20.76 7.47-33.17 9.88-36 .77-.44 15.3-2.63 15.3-2.63Z" style="fill:#ba68c8"/><path d="M422.49 142.33c9.75 2.18 12.68 3.13 17.29 4.2 0 0 8.58 24.31 4.45 41.25-1 3.9.2 32.58.92 42.29 0 0-16.27 9.21-43.55 6.42-21.41-2.19-24-10.16-24-10.16s.52-29.26 1.5-45.07c1.29-20.76 7.47-33.17 9.88-36 .77-.44 15.3-2.63 15.3-2.63Z" style="fill:#fff;fill-opacity:.2"/><path d="M419.3 107.91c-1.54 5.6 2.83 10.88 4.85 12.49-.19 3.22-.32 10.31-.33 13.58 5.76-1.3 15.25-31 5.36-34.23 1.17-6.16-6-9.36-11.75-11s-8.18-4.52-13.18-3.17a4.26 4.26 0 0 0-2.92 3.75 10.9 10.9 0 0 0-6.73-.2c-2.77.6-4.41 4.8-1.39 6.12-2.48.35-5.56 2.07-5.1 4.94a3 3 0 0 0 2.89 2.34c-2.87.49-5.15 3.43-2.51 5.73a1.82 1.82 0 0 1 .44 1.63c-.19.56-.95.94-1.38.36a2.14 2.14 0 0 0 3.59-.55c.33-.7.05-1.43.27-2.18.85 3.15 4.85 1.84 7.22 2.15 6.8-1.04 13.81-1.05 20.67-1.76Z" style="fill:#263238"/><path d="M431.26 128.23c-4.12 2.07-6.05-1.19-6.05-1.19l-.41 18c-7.83 10.75-29.11 6.73-20.5-1.36v-5.06a28.4 28.4 0 0 1-3.6-.34c-3.67-.53-6-3.11-7.16-7.07-1.68-5.86-2.44-15.26-.35-25.3.41-1.94 1.22-4.06 3-5 4.38-2.23 8.49.86 14.65 3.17 2.56 1 8.73 1.32 10.34.54-2.11 2.39-.8 8.5-.2 10.43.85 2.78 2.05 4.13 2.63 4.24 2.52.5 2.79-1.66 3.9-2.86a4.62 4.62 0 0 1 7.21 1.57 7.52 7.52 0 0 1-3.46 10.23Z" style="fill:#b16668"/><path d="M419.88 133.65c-.81 4.07-6.28 6.82-15.6 7.16v-2.22a43.51 43.51 0 0 0 6.82-.7c4.35-.77 8.78-4.24 8.78-4.24Z" style="fill:#9a4a4d"/><path d="m410.62 110.63 4.07 1.71a2.32 2.32 0 0 0-1.22-3 2.16 2.16 0 0 0-2.85 1.29ZM395.28 111.77l4.26-1.29a2.14 2.14 0 0 0-2.7-1.53 2.35 2.35 0 0 0-1.56 2.82ZM413.21 115a1.8 1.8 0 1 1-1.75-1.85 1.78 1.78 0 0 1 1.75 1.85ZM399.65 114.81a1.8 1.8 0 1 1-1.76-1.84 1.64 1.64 0 0 1 1.76 1.84Z" style="fill:#263238"/><path d="m406 112.77-1.7 10.69-5.53-1.31a21.29 21.29 0 0 1 7.23-9.38ZM409.57 124.79l-6.2 2.41a3.27 3.27 0 0 0 4.25 2 3.48 3.48 0 0 0 1.95-4.41Z" style="fill:#9a4a4d"/><path d="M409 126a3.58 3.58 0 0 1 .79-.11 3.44 3.44 0 0 1-2.14 3.37 3.48 3.48 0 0 1-1 .2A3 3 0 0 1 409 126Z" style="fill:#f28f8f"/><path d="m332.91 161.1 1.57-1a1.62 1.62 0 0 1 1.48 0l40.47 16.58a5.72 5.72 0 0 1 3.06 3.66l7.18 33.32a1.48 1.48 0 0 1-.41 1.61l-1.62 1.09a1.63 1.63 0 0 1-1.5 0l-40.46-16.58a5.71 5.71 0 0 1-3.07-3.65l-7.18-33.33c-.18-.87.03-1.44.48-1.7Z" style="fill:#455a64"/><path d="M376.39 178.81a5.67 5.67 0 0 1 1.5 2.57l7.18 33.31a1.54 1.54 0 0 1-.35 1.58l1.52-1a1.47 1.47 0 0 0 .41-1.6l-7.18-33.33a5.43 5.43 0 0 0-1.38-2.42Z" style="fill:#263238"/><path d="m385.06 214.69-7.18-33.32a5.67 5.67 0 0 0-3.06-3.65l-40.47-16.58c-1.37-.57-2.24.16-1.93 1.61l7.18 33.33a5.71 5.71 0 0 0 3.07 3.65l40.46 16.58c1.38.56 2.24-.16 1.93-1.62Z" style="fill:#37474f"/><path d="m374.82 177.72-9.44-3.72-9.4-3.8-18.82-7.61-2.34-1a5.31 5.31 0 0 0-1.13-.4.92.92 0 0 0-.91.31c-.4.57 0 1.46.1 2.28l.52 2.48 2.1 9.93 2.09 9.93 2 10-2.26-9.9-2.18-9.91-2.15-9.95-.54-2.48c-.09-.41-.19-.81-.27-1.25a1.87 1.87 0 0 1 .22-1.39 1.39 1.39 0 0 1 1.36-.52 5.64 5.64 0 0 1 1.26.41l2.35 1 18.75 7.77 9.37 3.89ZM377.05 188.07l-1.35-6.23a1.07 1.07 0 0 0-.57-.69l-2.79-1.15c-.25-.11-.42 0-.36.3.27 1.23 1.08 5 1.35 6.24a1 1 0 0 0 .57.68l2.78 1.14c.26.12.42-.01.37-.29Z" style="fill:#455a64"/><path d="M375.39 183.25a2.7 2.7 0 0 0-1.47-1.69c-.67-.28-1.09 0-.95.71a2.7 2.7 0 0 0 1.47 1.69c.67.27 1.09-.05.95-.71ZM376 186.39a2.7 2.7 0 0 0-1.47-1.69c-.67-.27-1.09 0-.95.71a2.7 2.7 0 0 0 1.47 1.69c.7.27 1.12-.04.95-.71Z" style="fill:#263238"/><path d="M333.82 182.41c-1.31-2-1.17-2.3-.35-3.27a6.24 6.24 0 0 1 5.2-2.33c1.73.15 3.48.21 4.35.71s0 2.36-2.27 2.74c-3.61.62-3.64 1.59-3.64 1.59a46.13 46.13 0 0 1 4.64-.57 33.32 33.32 0 0 1 5.19 1.07c1.49.31 1.68 2.27-.9 2.8l2.73.58c1.91.41 2.52 1.47.94 2.59a2.9 2.9 0 0 1-1.78.56s2.05.11 2.06.79c0 2-1.28 2.41-5.49 3.4-4 .94-4.94 3-4.23 4.54 0 0-1.55-1-2.92-2.07-1-.77-1.84-1.62-1.28-3.22 0 0-2.27-.08-2.33-1.48a7.14 7.14 0 0 1 .7-3 2.46 2.46 0 0 1-1.12-2.38 4 4 0 0 1 .95-2.42Z" style="fill:#b16668"/><path d="M346 185.15a12.47 12.47 0 0 0-2.48-.4 8.08 8.08 0 0 0-2.47.64 30.41 30.41 0 0 0-4.48 2.1 28.46 28.46 0 0 0 4.74-1.42 13.26 13.26 0 0 1 2.25-.76c.79-.08 1.66-.05 2.44-.16ZM347.93 188.88a5.48 5.48 0 0 0-2.7-.22 13.63 13.63 0 0 0-2.62.68 25.1 25.1 0 0 0-4.84 2.27c1.75-.41 3.41-1 5.08-1.58a14 14 0 0 1 5.08-1.15ZM412.16 174.89c-3.32-2.81-5-3.92-6.61-4.48s-7.14-3.29-9.29-4c-1.37-.43-2.06 1.74-.39 3.36 1.28 1.25 4.72 3 6.21 3.95s4.31 4.83 4.31 4.83Z" style="fill:#9a4a4d"/><path d="M454.16 159.93c-3-7.57-5.93-9.83-13.73-12.37-8.34 7.18-3.67 27.06-3.67 27.06l7.49 21s-16.86-5.79-19.12-7.44-8.16-8.85-10.16-11c-2.71-2.95-4.16-2.67-5.64-2.54-4.85.42-5.93.76-7 1.34a2.22 2.22 0 0 0-1 1.82c-1.28.08-3.19-.08-3.56 2a5.73 5.73 0 0 0-.18 1.67 1.42 1.42 0 0 0-.86.42c-1.14 1.17.42 5.54 1.51 6.65.76.77 1.92.94 3.45.83 1.3-.1.78-1.45.78-1.45l1.8.22c3.74 3 3.59 8.52 8.68 10.06a35.14 35.14 0 0 1 6.23 1.61C430 204.19 444 216.63 453.8 218.1c9.62 1.43 10.86-4.19 10.8-10.12-.11-9.48-7.46-40.5-10.44-48.05Z" style="fill:#b16668"/><path d="m443.62 193 .63 2.63c4.33 1.41 8.89 4.88 9.8 7.35-.59-3.92-2.81-7.48-10.43-9.98ZM401.29 177.75l6.12-.2-6-.58a2.41 2.41 0 0 0-.12.78ZM397.55 181.42l6.61-.44-6.57-.32a2.69 2.69 0 0 0-.04.76ZM398.23 184.37a2.14 2.14 0 0 0 .84.82 4.62 4.62 0 0 0 1.1.45l-.09-.07c.16.36.32.7.49 1.05l.15-.17a1.31 1.31 0 0 0-1.06.2 1.75 1.75 0 0 0-.63.82 2.12 2.12 0 0 1 .72-.68 1.34 1.34 0 0 1 .9-.1l.25.06-.11-.23c-.15-.35-.31-.71-.48-1.05v-.06h-.06a7.14 7.14 0 0 1-1.07-.37 2.41 2.41 0 0 1-.95-.67Z" style="fill:#9a4a4d"/><path d="M399.92 185.32a21.63 21.63 0 0 0 2.37.31A2.57 2.57 0 0 0 403 187a13.17 13.17 0 0 0 1.2 1.14l-1.8-.22a2.89 2.89 0 0 0-2-1.25Z" style="fill:#9a4a4d"/><path d="M439.78 146.53c-2.45 1.42-7.19 9.72-4.29 23.56a118.81 118.81 0 0 0 8.51 25.26l-10.18-3.49s.37 5.8-1.36 9.52-3.81 3.47-3.81 3.47 3.15 2.46 9.29 6.47 14.7 9.13 20.65 7.79 6.58-6.16 6.34-12.79-6.05-30.29-7.63-37.16-2.59-18.95-17.52-22.63Z" style="fill:#ba68c8"/><path d="M444 195.35c4.16 1.12 9.42 5.72 10.43 8.05-1.19-5.1-4.74-9.58-11.87-11.22Z" style="opacity:.2"/><path d="m410.72 76 2.85-5.36-2.29-6.64v-4l7 4.05v4l-3 5.22a.38.38 0 0 1-.2.18Z" style="fill:#ba68c8"/><path d="m410.72 76 2.85-5.36-2.29-6.64v-4l7 4.05v4l-3 5.22a.38.38 0 0 1-.2.18Z" style="opacity:.2"/><path d="M394 27.76a4.65 4.65 0 0 1 2.1-3.64l1.71-1a4.66 4.66 0 0 1 4.21 0l26.26 15.19a4.65 4.65 0 0 1 2.1 3.64v28.9a4.65 4.65 0 0 1-2.1 3.64l-1.71 1a4.66 4.66 0 0 1-4.21 0l-8.44-4.88-3 5.21a.45.45 0 0 1-.82-.08l-3.18-9.18-10.85-6.26a4.65 4.65 0 0 1-2.1-3.64Z" style="fill:#ba68c8"/><path d="M430.35 70.86a4.65 4.65 0 0 1-2.1 3.64l-1.71 1a4.73 4.73 0 0 1-3.85.17c1 .37 1.74-.19 1.74-1.39v-28.9a4.29 4.29 0 0 0-.61-2.07l5.92-3.42a4.29 4.29 0 0 1 .61 2.07Z" style="opacity:.2"/><path d="M394 27.16c.24-.89 1.06-1.17 2-.61l26.26 15.19a4.09 4.09 0 0 1 1.48 1.57l5.92-3.42a4.31 4.31 0 0 0-1.48-1.57L402 23.13a4.72 4.72 0 0 0-4.21 0l-1.71 1a4.64 4.64 0 0 0-2.08 3.03Z" style="fill:#fff;opacity:.30000000000000004"/><path d="M417.56 58.84a1 1 0 0 1-1.37.87 5.59 5.59 0 0 1 .2 1.42c0 .89-.74 1.35-1.81.73l-8.17-4.7V46.49a31.29 31.29 0 0 0 2.45-3 22.27 22.27 0 0 0 0-3.83c0-.4 1.34.18 2.2 1.58a4.46 4.46 0 0 1 .48 1.08 14.15 14.15 0 0 1 .49 2.27 7.36 7.36 0 0 1-.17 2.84l4.94 2.85a2.67 2.67 0 0 1 .95 1 3.49 3.49 0 0 1 .52 1.66c0 1-.53 1.18-.8 1.21a3 3 0 0 1 1 2.16c0 .74-.45 1.29-1.2 1a3.66 3.66 0 0 1 .29 1.53ZM401.67 43.91v11.51a.88.88 0 0 0 .41.7l2.75 1.58c.22.13.4 0 .4-.23V46a.9.9 0 0 0-.4-.7l-2.77-1.61c-.21-.13-.39-.03-.39.22Z" style="fill:#fafafa"/></svg>