<svg height="40" width="40" version="1.2" baseProfile="tiny" xmlns="http://www.w3.org/2000/svg" viewBox="0 0 172 256"><path d="M148.2 197.9c.1 0 .2.1.2.1-.2-.1-.4-.3-.5-.4-1-.8-2.1-1.7-3.2-2.5-.4-.3-.7-.5-1.1-.8-1.5-1-3.1-2-4.8-3h-.1c-3.7-2-7.8-3.8-12.3-5.4-5.9-2-12.4-3.6-19.3-4.7v31.1c0 6.5-5.3 11.7-11.7 11.7-3.4 0-6.4-1.5-8.5-3.8-2.1 2.3-5.2 3.8-8.6 3.8-6.5 0-11.7-5.2-11.7-11.7v-31.1c-29.5 4.5-51 18.5-51 35.1 0 20.2 31.9 36.6 71.3 36.6s71.3-16.4 71.3-36.6c0-6.6-3.7-12.9-10-18.4zm-41.7-94.1 18.9-19L98.9 3.2H73.1L48 84.7l18.9 19.1h39.6zm-19-30c7.1 0 12.9 5.8 12.9 12.9 0 7.2-5.8 12.9-12.9 12.9-7.1 0-12.9-5.7-12.9-12.9 0-7.1 5.8-12.9 12.9-12.9z"/><path d="M156.6 200.7 128.7 97 103 123.5v53.1l4.7.7c22.8 3.4 40.4 12.1 48.9 23.4zm-86-24.1v35.9c0 4.1 3.3 7.4 7.4 7.5 3.9-.2 7-3.4 7-7.3l-.1-37.1c-4.9.1-9.7.4-14.3 1zm-.3 0v-53.3L44.8 97.1 18.9 198.5c9.1-10.2 25.7-18 47-21.2l4.4-.7zm18-1.2V153H85v22.4h3.3zm0 37.3c.1 4 3.4 7.3 7.4 7.3 4.1 0 7.3-3.3 7.3-7.3l-.1-36.3c-4.7-.6-9.6-.9-14.7-.9l.1 37.2z"/><path d="m38.8 90.9 6 6.2L48 84.7l-1.4-1.5v-.1c-2.1-2.1-5.6-2.1-7.7 0-2.2 2.2-2.2 5.7-.1 7.8zm95.8.1c2.2-2.2 2.2-5.6 0-7.7-2.1-2.1-5.6-2.1-7.7 0l-1.5 1.5 3.3 12.3 5.9-6.1z"/></svg>